<svg width="153" height="46" viewBox="0 0 153 46" fill="none" xmlns="http://www.w3.org/2000/svg">
<path d="M55.3818 29.2598C55.3818 30.6986 55.0332 31.9492 54.3359 33.0117C53.6387 34.0742 52.6204 34.8932 51.2812 35.4688C49.9531 36.0443 48.3372 36.332 46.4336 36.332C45.5924 36.332 44.7679 36.2767 43.96 36.166C43.1631 36.0553 42.3939 35.8949 41.6523 35.6846C40.9219 35.4632 40.2246 35.1921 39.5605 34.8711V30.0898C40.7116 30.599 41.9069 31.0583 43.1465 31.4678C44.3861 31.8773 45.6146 32.082 46.832 32.082C47.6732 32.082 48.3483 31.9714 48.8574 31.75C49.3776 31.5286 49.7539 31.2243 49.9863 30.8369C50.2188 30.4495 50.335 30.0068 50.335 29.5088C50.335 28.9001 50.1302 28.3799 49.7207 27.9482C49.3112 27.5166 48.7467 27.1126 48.0273 26.7363C47.319 26.36 46.5166 25.9561 45.6201 25.5244C45.0557 25.2588 44.4414 24.9378 43.7773 24.5615C43.1133 24.1742 42.4824 23.7038 41.8848 23.1504C41.2871 22.597 40.7946 21.9274 40.4072 21.1416C40.0309 20.3447 39.8428 19.3929 39.8428 18.2861C39.8428 16.8363 40.1748 15.5967 40.8389 14.5674C41.5029 13.5381 42.4492 12.7523 43.6777 12.21C44.9173 11.6566 46.3783 11.3799 48.0605 11.3799C49.3223 11.3799 50.5231 11.5293 51.6631 11.8281C52.8141 12.1159 54.015 12.5365 55.2656 13.0898L53.6055 17.0908C52.4876 16.637 51.486 16.2884 50.6006 16.0449C49.7152 15.7904 48.8132 15.6631 47.8945 15.6631C47.2526 15.6631 46.7048 15.7682 46.251 15.9785C45.7972 16.1777 45.4541 16.4655 45.2217 16.8418C44.9893 17.207 44.873 17.6331 44.873 18.1201C44.873 18.6956 45.0391 19.1826 45.3711 19.5811C45.7142 19.9684 46.2233 20.3447 46.8984 20.71C47.5846 21.0752 48.4368 21.5013 49.4551 21.9883C50.6947 22.5749 51.7516 23.1891 52.626 23.8311C53.5114 24.4619 54.1921 25.209 54.668 26.0723C55.1439 26.9245 55.3818 27.987 55.3818 29.2598ZM79.3047 36H73.4609L67.1025 25.7734L64.9277 27.334V36H59.7812V11.7285H64.9277V22.835C65.2708 22.359 65.6084 21.8831 65.9404 21.4072C66.2725 20.9313 66.61 20.4554 66.9531 19.9795L73.5273 11.7285H79.2383L70.7715 22.4697L79.3047 36ZM89.9131 21.7227L94.9766 11.7285H100.521L92.4697 26.5537V36H87.3564V26.7197L79.3047 11.7285H84.8828L89.9131 21.7227ZM107.594 36L100.521 17.4395H105.817L109.403 28.0146C109.603 28.6344 109.757 29.2874 109.868 29.9736C109.99 30.6598 110.073 31.2741 110.117 31.8164H110.25C110.283 31.2298 110.361 30.6045 110.482 29.9404C110.615 29.2764 110.787 28.6344 110.997 28.0146L114.566 17.4395H119.862L112.79 36H107.594ZM127.599 17.4395V36H122.535V17.4395H127.599ZM125.075 10.168C125.828 10.168 126.475 10.3451 127.018 10.6992C127.56 11.0423 127.831 11.6898 127.831 12.6416C127.831 13.5824 127.56 14.2354 127.018 14.6006C126.475 14.9548 125.828 15.1318 125.075 15.1318C124.312 15.1318 123.659 14.9548 123.116 14.6006C122.585 14.2354 122.319 13.5824 122.319 12.6416C122.319 11.6898 122.585 11.0423 123.116 10.6992C123.659 10.3451 124.312 10.168 125.075 10.168ZM143.47 17.0908C145.451 17.0908 147.045 17.6331 148.251 18.7178C149.457 19.7913 150.061 21.5179 150.061 23.8975V36H144.997V25.1592C144.997 23.8311 144.754 22.8294 144.267 22.1543C143.791 21.4792 143.038 21.1416 142.009 21.1416C140.459 21.1416 139.402 21.6673 138.838 22.7188C138.273 23.7702 137.991 25.2865 137.991 27.2676V36H132.928V17.4395H136.796L137.477 19.8135H137.759C138.157 19.1715 138.65 18.6514 139.236 18.2529C139.834 17.8545 140.493 17.5612 141.212 17.373C141.942 17.1849 142.695 17.0908 143.47 17.0908Z" fill="white"/>
<path d="M24.8038 15.9586C24.4323 14.268 22.9068 13.041 21.1759 13.041H0C0.468101 15.0835 2.30019 16.6117 4.48261 16.6117H13.8003V18.6668H2.01233C2.48016 20.7093 4.31252 22.2375 6.49467 22.2375H16.0196V24.2925H4.23161C4.69971 26.3348 6.53179 27.8633 8.71422 27.8633H27.4174L24.8038 15.9586Z" fill="white"/>
<path d="M32.225 21.3179C31.9748 20.1787 31.3366 19.1491 30.4279 18.4182C29.5192 17.6873 28.3766 17.2847 27.2105 17.2847H27.1987L29.9726 29.9181H10.8208C11.6019 32.2618 13.8153 33.9563 16.418 33.9563H35L32.225 21.3179Z" fill="white"/>
</svg>
