<svg width="35" height="35" viewBox="0 0 35 35" fill="none" xmlns="http://www.w3.org/2000/svg">
<path d="M24.8038 9.95857C24.4323 8.26801 22.9068 7.04102 21.1759 7.04102H0C0.468101 9.08352 2.30019 10.6117 4.48261 10.6117H13.8003V12.6668H2.01233C2.48016 14.7093 4.31252 16.2375 6.49467 16.2375H16.0196V18.2925H4.23161C4.69971 20.3348 6.53179 21.8633 8.71422 21.8633H27.4174L24.8038 9.95857Z" fill="#39A2DD"/>
<path d="M32.225 15.3181C31.9748 14.179 31.3366 13.1493 30.4279 12.4184C29.5192 11.6876 28.3766 11.2849 27.2105 11.2849H27.1987L29.9726 23.9183H10.8208C11.6019 26.262 13.8153 27.9566 16.418 27.9566H35L32.225 15.3181Z" fill="#39A2DD"/>
</svg>
