<svg width="153" height="46" viewBox="0 0 153 46" fill="none" xmlns="http://www.w3.org/2000/svg">
<path d="M55.3818 29.2598C55.3818 31.4512 54.5905 33.1777 53.0078 34.4395C51.4362 35.7012 49.2448 36.332 46.4336 36.332C43.8438 36.332 41.5527 35.8451 39.5605 34.8711V30.0898C41.1986 30.8203 42.582 31.335 43.7109 31.6338C44.8509 31.9326 45.8913 32.082 46.832 32.082C47.9609 32.082 48.8242 31.8662 49.4219 31.4346C50.0306 31.0029 50.335 30.361 50.335 29.5088C50.335 29.0329 50.2021 28.6123 49.9365 28.2471C49.6709 27.8708 49.278 27.5111 48.7578 27.168C48.2487 26.8249 47.2028 26.277 45.6201 25.5244C44.137 24.8271 43.0247 24.1576 42.2832 23.5156C41.5417 22.8737 40.9495 22.1266 40.5068 21.2744C40.0641 20.4222 39.8428 19.4261 39.8428 18.2861C39.8428 16.139 40.5677 14.4512 42.0176 13.2227C43.4785 11.9941 45.4928 11.3799 48.0605 11.3799C49.3223 11.3799 50.5231 11.5293 51.6631 11.8281C52.8141 12.127 54.015 12.5475 55.2656 13.0898L53.6055 17.0908C52.3105 16.5596 51.237 16.1888 50.3848 15.9785C49.5436 15.7682 48.7135 15.6631 47.8945 15.6631C46.9206 15.6631 46.1735 15.89 45.6533 16.3438C45.1331 16.7975 44.873 17.3896 44.873 18.1201C44.873 18.5739 44.9782 18.9723 45.1885 19.3154C45.3988 19.6475 45.7308 19.974 46.1846 20.2949C46.6494 20.6048 47.7396 21.1693 49.4551 21.9883C51.724 23.0729 53.279 24.1631 54.1201 25.2588C54.9613 26.3434 55.3818 27.6771 55.3818 29.2598ZM79.3047 36H73.4609L67.1025 25.7734L64.9277 27.334V36H59.7812V11.7285H64.9277V22.835L66.9531 19.9795L73.5273 11.7285H79.2383L70.7715 22.4697L79.3047 36ZM89.9131 21.7227L94.9766 11.7285H100.521L92.4697 26.5537V36H87.3564V26.7197L79.3047 11.7285H84.8828L89.9131 21.7227Z" fill="#39A2DD"/>
<path d="M107.594 36L100.521 17.4395H105.817L109.403 28.0146C109.802 29.3538 110.051 30.6211 110.15 31.8164H110.25C110.305 30.7539 110.554 29.4867 110.997 28.0146L114.566 17.4395H119.862L112.79 36H107.594ZM122.319 12.6416C122.319 10.9925 123.238 10.168 125.075 10.168C126.912 10.168 127.831 10.9925 127.831 12.6416C127.831 13.4274 127.599 14.0417 127.134 14.4844C126.68 14.916 125.994 15.1318 125.075 15.1318C123.238 15.1318 122.319 14.3018 122.319 12.6416ZM127.599 36H122.535V17.4395H127.599V36ZM150.061 36H144.997V25.1592C144.997 23.82 144.759 22.8184 144.283 22.1543C143.807 21.4792 143.049 21.1416 142.009 21.1416C140.592 21.1416 139.568 21.6175 138.938 22.5693C138.307 23.5101 137.991 25.0762 137.991 27.2676V36H132.928V17.4395H136.796L137.477 19.8135H137.759C138.323 18.917 139.098 18.2419 140.083 17.7881C141.079 17.3232 142.208 17.0908 143.47 17.0908C145.628 17.0908 147.266 17.6774 148.384 18.8506C149.502 20.0127 150.061 21.695 150.061 23.8975V36Z" fill="#333333"/>
<path d="M24.8038 15.9586C24.4323 14.268 22.9068 13.041 21.1759 13.041H0C0.468101 15.0835 2.30019 16.6117 4.48261 16.6117H13.8003V18.6668H2.01233C2.48016 20.7093 4.31252 22.2375 6.49467 22.2375H16.0196V24.2925H4.23161C4.69971 26.3348 6.53179 27.8633 8.71422 27.8633H27.4174L24.8038 15.9586Z" fill="#39A2DD"/>
<path d="M32.225 21.3181C31.9748 20.179 31.3366 19.1493 30.4279 18.4184C29.5192 17.6876 28.3766 17.2849 27.2105 17.2849H27.1987L29.9726 29.9183H10.8208C11.6019 32.262 13.8153 33.9566 16.418 33.9566H35L32.225 21.3181Z" fill="#39A2DD"/>
</svg>
