<svg width="30" height="30" viewBox="0 0 30 30" fill="none" xmlns="http://www.w3.org/2000/svg">
<path d="M11.077 29.531C16.461 27.087 21.425 28.198 24.019 27.021C26.613 25.844 31.385 21.878 25.968 9.94304C20.551 -1.99196 12.427 -0.41696 9.57201 0.87804C-3.78999 6.94304 1.54101 33.859 11.077 29.531Z" fill="#F0EDED"/>
<path d="M5.38399 6.66605C5.13043 6.66605 4.88257 6.59086 4.67175 6.45C4.46093 6.30913 4.29661 6.10891 4.19958 5.87465C4.10255 5.6404 4.07716 5.38263 4.12662 5.13395C4.17609 4.88526 4.29819 4.65683 4.47748 4.47754C4.65677 4.29825 4.8852 4.17615 5.13388 4.12668C5.38257 4.07722 5.64034 4.10261 5.87459 4.19964C6.10885 4.29667 6.30907 4.46099 6.44993 4.67181C6.5908 4.88263 6.66599 5.1305 6.66599 5.38405C6.66546 5.7239 6.53022 6.04967 6.28992 6.28998C6.04961 6.53029 5.72384 6.66552 5.38399 6.66605ZM5.38399 4.95605C5.29954 4.95605 5.21698 4.98109 5.14676 5.02801C5.07654 5.07493 5.02181 5.14162 4.98949 5.21965C4.95718 5.29767 4.94872 5.38353 4.9652 5.46636C4.98167 5.54918 5.02234 5.62527 5.08206 5.68499C5.14177 5.7447 5.21786 5.78537 5.30069 5.80185C5.38352 5.81832 5.46937 5.80987 5.5474 5.77755C5.62542 5.74523 5.69211 5.6905 5.73903 5.62028C5.78595 5.55006 5.81099 5.4675 5.81099 5.38305C5.81046 5.26997 5.76531 5.16166 5.68534 5.0817C5.60538 5.00173 5.49708 4.95658 5.38399 4.95605Z" fill="#A4AFC1"/>
<path d="M23.548 17.671H24.403V19.381H23.548V17.671Z" fill="#A4AFC1"/>
<path d="M23.548 22.587H24.403V24.297H23.548V22.587Z" fill="#A4AFC1"/>
<path d="M20.556 20.45H22.266V21.305H20.556V20.45Z" fill="#A4AFC1"/>
<path d="M25.472 20.45H27.182V21.305H25.472V20.45Z" fill="#A4AFC1"/>
<path d="M20.371 5.38306H9.629C9.40931 5.38359 9.19881 5.4713 9.04375 5.62693C8.88869 5.78255 8.80174 5.99337 8.802 6.21306V12.4351C8.835 17.4131 15.002 19.4871 15.002 19.4871C15.002 19.4871 21.202 17.4131 21.202 12.4351V6.21306C21.2021 6.10394 21.1807 5.99587 21.139 5.89504C21.0973 5.79422 21.036 5.70262 20.9588 5.62551C20.8816 5.5484 20.79 5.48729 20.6891 5.44568C20.5882 5.40408 20.4801 5.3828 20.371 5.38306Z" fill="#39A2DD"/>
<path d="M11.999 13.504L11.367 9.804L13.421 10.806L15 7.948L16.582 10.806L18.635 9.8L18.003 13.5L11.999 13.504Z" fill="#F0EDED"/>
<path d="M18.633 24.617H11.367V24.19C11.3669 23.9654 11.411 23.743 11.4969 23.5354C11.5828 23.3279 11.7087 23.1394 11.8676 22.9805C12.0264 22.8217 12.2149 22.6958 12.4225 22.6099C12.63 22.524 12.8524 22.4798 13.077 22.48H16.924C17.1486 22.4798 17.371 22.524 17.5785 22.6099C17.7861 22.6958 17.9746 22.8217 18.1335 22.9805C18.2923 23.1394 18.4182 23.3279 18.5041 23.5354C18.59 23.743 18.6341 23.9654 18.634 24.19L18.633 24.617Z" fill="#F0EDED"/>
<path d="M14.782 22.48H13.077C12.8524 22.4798 12.63 22.524 12.4225 22.6099C12.2149 22.6958 12.0264 22.8217 11.8676 22.9805C11.7087 23.1394 11.5828 23.3279 11.4969 23.5354C11.411 23.743 11.3669 23.9654 11.367 24.19V24.617H13.077V24.19C13.0767 23.7372 13.2561 23.3029 13.5758 22.9823C13.8955 22.6617 14.3293 22.481 14.782 22.48Z" fill="#A4AFC1"/>
<path d="M10.514 12.4351V6.21306C10.5137 5.99336 10.6007 5.78255 10.7557 5.62692C10.9108 5.4713 11.1213 5.38359 11.341 5.38306H9.629C9.40931 5.38359 9.19881 5.4713 9.04375 5.62692C8.88869 5.78255 8.80174 5.99336 8.802 6.21306V12.4351C8.835 17.4131 15.002 19.4871 15.002 19.4871C15.002 19.4871 15.345 19.3701 15.859 19.1351C14.167 18.3611 10.538 16.2561 10.514 12.4351Z" fill="#1975A8"/>
<path d="M11.367 9.80005L11.999 13.5H13.709L13.232 10.715L11.367 9.80005Z" fill="#A4AFC1"/>
<path d="M18.001 14.145H12.001C11.8497 14.1451 11.7032 14.0916 11.5876 13.994C11.4719 13.8965 11.3945 13.7612 11.369 13.612L10.74 9.90802C10.7216 9.79253 10.7351 9.67421 10.7791 9.56586C10.8231 9.45751 10.8959 9.36327 10.9897 9.29333C11.0834 9.2234 11.1945 9.18044 11.3109 9.1691C11.4273 9.15776 11.5445 9.17848 11.65 9.22902L13.155 9.96702L14.44 7.63702C14.5002 7.54288 14.5832 7.46541 14.6812 7.41174C14.7793 7.35808 14.8892 7.32996 15.001 7.32996C15.1128 7.32996 15.2227 7.35808 15.3208 7.41174C15.4188 7.46541 15.5018 7.54288 15.562 7.63702L16.847 9.96102L18.352 9.22902C18.458 9.17702 18.5763 9.15532 18.6939 9.16632C18.8115 9.17732 18.9238 9.22058 19.0183 9.29133C19.1128 9.36209 19.186 9.45758 19.2297 9.56729C19.2734 9.67699 19.286 9.79663 19.266 9.91302L18.634 13.613C18.6077 13.7619 18.5299 13.8968 18.4141 13.994C18.2984 14.0913 18.1522 14.1447 18.001 14.145ZM12.54 12.863H17.46L17.791 10.929L16.862 11.384C16.7142 11.4568 16.5439 11.4696 16.3868 11.4199C16.2298 11.3701 16.098 11.2616 16.019 11.117L15 9.27402L13.982 11.116C13.9028 11.2604 13.771 11.3688 13.614 11.4185C13.457 11.4682 13.2869 11.4555 13.139 11.383L12.21 10.929L12.54 12.863Z" fill="#333333"/>
<path d="M18.633 25.258H11.367C11.197 25.258 11.034 25.1905 10.9138 25.0702C10.7935 24.95 10.726 24.787 10.726 24.617V24.19C10.7265 23.5666 10.9744 22.969 11.4152 22.5282C11.856 22.0874 12.4537 21.8395 13.077 21.839H16.924C17.5474 21.8395 18.1451 22.0874 18.5858 22.5282C19.0266 22.969 19.2745 23.5666 19.275 24.19V24.617C19.275 24.7013 19.2584 24.7847 19.2261 24.8625C19.1938 24.9404 19.1465 25.0111 19.0869 25.0706C19.0273 25.1301 18.9565 25.1773 18.8786 25.2095C18.8007 25.2416 18.7173 25.2581 18.633 25.258ZM12.033 23.976H17.973C17.9235 23.7348 17.7924 23.518 17.6016 23.3622C17.4109 23.2065 17.1723 23.1213 16.926 23.121H13.076C12.83 23.1217 12.5917 23.2071 12.4012 23.3628C12.2107 23.5185 12.0796 23.735 12.03 23.976H12.033Z" fill="#333333"/>
<path d="M14.359 19.488H15.642V22.48H14.359V19.488Z" fill="#333333"/>
<path d="M15 20.1289C14.932 20.1286 14.8645 20.1174 14.8 20.0959C14.531 20.0049 8.20002 17.8139 8.16602 12.4399V6.21294C8.16601 5.82419 8.31989 5.45124 8.59403 5.17561C8.86817 4.89997 9.24027 4.74406 9.62902 4.74194H20.372C20.7616 4.74274 21.135 4.89807 21.4102 5.17385C21.6854 5.44963 21.84 5.82333 21.84 6.21294V7.76794H20.556V6.21294C20.5563 6.16343 20.537 6.1158 20.5024 6.08041C20.4677 6.04502 20.4205 6.02473 20.371 6.02394H9.62902C9.5795 6.02473 9.5323 6.04502 9.49766 6.08041C9.46302 6.1158 9.44375 6.16343 9.44402 6.21294V12.4349C9.47102 16.4009 13.978 18.4009 15.001 18.8029C16.027 18.4029 20.557 16.4029 20.557 12.4349V8.80194H21.839V12.4349C21.839 17.8129 15.475 20.0049 15.204 20.0949C15.1395 20.1165 15.072 20.1277 15.004 20.1279L15 20.1289Z" fill="#333333"/>
</svg>
