<svg width="30" height="30" viewBox="0 0 30 30" fill="none" xmlns="http://www.w3.org/2000/svg">
<g clip-path="url(#clip0_237_3601)">
<path d="M5.78899 26.917C12.367 26.917 16.889 30.003 20.054 30.003C23.219 30.003 29.881 28.353 29.881 15.147C29.881 1.941 20.925 0 17.439 0C1.10999 0 -5.86101 26.917 5.78899 26.917Z" fill="#F0EDED"/>
<path d="M23.814 2.03296L24.5211 1.32585L25.9353 2.74007L25.2282 3.44717L23.814 2.03296Z" fill="#A4AFC1"/>
<path d="M27.879 6.099L28.5861 5.39189L30.0003 6.80611L29.2932 7.51321L27.879 6.099Z" fill="#A4AFC1"/>
<path d="M27.7029 2.73999L29.1172 1.32578L29.8243 2.03288L28.41 3.4471L27.7029 2.73999Z" fill="#A4AFC1"/>
<path d="M23.558 22.25H6.323C5.81094 22.2312 5.32723 22.0101 4.97798 21.6352C4.62872 21.2603 4.44244 20.7621 4.46 20.25V9.75C4.44244 9.2379 4.62872 8.73974 4.97798 8.3648C5.32723 7.98987 5.81094 7.76877 6.323 7.75H23.558C24.0701 7.76877 24.5538 7.98987 24.903 8.3648C25.2523 8.73974 25.4386 9.2379 25.421 9.75V20.25C25.4386 20.7621 25.2523 21.2603 24.903 21.6352C24.5538 22.0101 24.0701 22.2312 23.558 22.25Z" fill="#F0EDED"/>
<path d="M14.944 17.75C16.4628 17.75 17.694 16.5188 17.694 15C17.694 13.4812 16.4628 12.25 14.944 12.25C13.4252 12.25 12.194 13.4812 12.194 15C12.194 16.5188 13.4252 17.75 14.944 17.75Z" fill="#39A2DD"/>
<path d="M6.70996 20.25V9.75C6.70996 9.21957 6.92068 8.71086 7.29575 8.33579C7.67082 7.96071 8.17953 7.75 8.70996 7.75H6.45996C5.92953 7.75 5.42082 7.96071 5.04575 8.33579C4.67067 8.71086 4.45996 9.21957 4.45996 9.75V20.25C4.45996 20.7804 4.67067 21.2891 5.04575 21.6642C5.42082 22.0393 5.92953 22.25 6.45996 22.25H8.70996C8.17953 22.25 7.67082 22.0393 7.29575 21.6642C6.92068 21.2891 6.70996 20.7804 6.70996 20.25Z" fill="#A4AFC1"/>
<path d="M14.489 15C14.4903 14.4711 14.6443 13.9538 14.9326 13.5103C15.2209 13.0668 15.6311 12.716 16.114 12.5C15.6951 12.3098 15.2352 12.2278 14.7764 12.2614C14.3176 12.2949 13.8745 12.4431 13.4878 12.6922C13.1011 12.9414 12.783 13.2835 12.5628 13.6874C12.3425 14.0913 12.2271 14.544 12.2271 15.004C12.2271 15.4641 12.3425 15.9167 12.5628 16.3206C12.783 16.7245 13.1011 17.0667 13.4878 17.3158C13.8745 17.565 14.3176 17.7131 14.7764 17.7467C15.2352 17.7803 15.6951 17.6982 16.114 17.508C15.6299 17.2915 15.2188 16.9395 14.9304 16.4944C14.6421 16.0494 14.4887 15.5303 14.489 15Z" fill="#1975A8"/>
<path d="M23.597 23H6.28399C5.57839 22.9755 4.91129 22.6723 4.42882 22.1568C3.94635 21.6414 3.68787 20.9557 3.70999 20.25V9.75C3.68787 9.04432 3.94635 8.35865 4.42882 7.84319C4.91129 7.32773 5.57839 7.02453 6.28399 7H23.597C24.3026 7.02453 24.9697 7.32773 25.4522 7.84319C25.9346 8.35865 26.1931 9.04432 26.171 9.75V20.25C26.1931 20.9557 25.9346 21.6414 25.4522 22.1568C24.9697 22.6723 24.3026 22.9755 23.597 23ZM6.28399 8.5C5.96267 8.51045 5.65862 8.64792 5.43853 8.88225C5.21844 9.11659 5.10029 9.42866 5.10999 9.75V20.25C5.10027 20.5707 5.21788 20.8822 5.43711 21.1164C5.65635 21.3506 5.95938 21.4885 6.27999 21.5H23.597C23.9176 21.4885 24.2206 21.3506 24.4399 21.1164C24.6591 20.8822 24.7767 20.5707 24.767 20.25V9.75C24.7767 9.42933 24.6591 9.11785 24.4399 8.88363C24.2206 8.6494 23.9176 8.51148 23.597 8.5H6.28399Z" fill="#333333"/>
<path d="M14.944 18.5C14.2517 18.5 13.575 18.2947 12.9995 17.9101C12.4239 17.5256 11.9753 16.9789 11.7104 16.3394C11.4455 15.6999 11.3762 14.9961 11.5112 14.3172C11.6463 13.6383 11.9796 13.0146 12.4691 12.5251C12.9586 12.0356 13.5822 11.7023 14.2612 11.5673C14.9401 11.4322 15.6438 11.5015 16.2834 11.7664C16.9229 12.0313 17.4695 12.4799 17.8541 13.0555C18.2387 13.6311 18.444 14.3078 18.444 15C18.444 15.9283 18.0752 16.8185 17.4188 17.4749C16.7625 18.1313 15.8722 18.5 14.944 18.5ZM14.944 13C14.5484 13 14.1617 13.1173 13.8328 13.3371C13.5039 13.5568 13.2476 13.8692 13.0962 14.2346C12.9448 14.6001 12.9052 15.0022 12.9824 15.3902C13.0596 15.7781 13.2501 16.1345 13.5298 16.4142C13.8095 16.6939 14.1658 16.8844 14.5538 16.9616C14.9418 17.0387 15.3439 16.9991 15.7093 16.8478C16.0748 16.6964 16.3871 16.44 16.6069 16.1111C16.8267 15.7822 16.944 15.3956 16.944 15C16.944 14.4696 16.7333 13.9609 16.3582 13.5858C15.9831 13.2107 15.4744 13 14.944 13Z" fill="#333333"/>
<path d="M3.92798 13.724L9.67817 7.97381L10.7388 9.03447L4.98864 14.7847L3.92798 13.724Z" fill="#333333"/>
<path d="M19.137 9.03699L20.1976 7.97633L25.9478 13.7265L24.8872 14.7872L19.137 9.03699Z" fill="#333333"/>
<path d="M3.927 16.275L4.98766 15.2144L10.7379 20.9646L9.67719 22.0252L3.927 16.275Z" fill="#333333"/>
<path d="M19.135 20.965L24.8852 15.2148L25.9459 16.2754L20.1957 22.0256L19.135 20.965Z" fill="#333333"/>
<path d="M7.29401 14.25H10.294V15.75H7.29401V14.25Z" fill="#333333"/>
<path d="M19.593 14.25H22.593V15.75H19.593V14.25Z" fill="#333333"/>
</g>
<defs>
<clipPath id="clip0_237_3601">
<rect width="30" height="30" fill="white"/>
</clipPath>
</defs>
</svg>
