<svg width="30" height="30" viewBox="0 0 30 30" fill="none" xmlns="http://www.w3.org/2000/svg">
<g clip-path="url(#clip0_237_3538)">
<path d="M23.124 2.85399C17.159 2.95999 13.004 -0.0540121 10.129 0.000987902C7.25398 0.0559879 1.24798 1.81999 1.49598 15.045C1.74398 28.27 9.90098 30.054 13.063 29.999C27.868 29.722 33.689 2.65399 23.124 2.85399Z" fill="#F0EDED"/>
<path d="M11.658 4.10999H13.383V4.97299H11.658V4.10999Z" fill="#A4AFC1"/>
<path d="M16.6169 4.10999H18.3429V4.97299H16.6169V4.10999Z" fill="#A4AFC1"/>
<path d="M14.4609 1.30603H15.3239V3.03203H14.4609V1.30603Z" fill="#A4AFC1"/>
<path d="M12.412 22.116C12.412 22.4558 12.4789 22.7924 12.609 23.1064C12.739 23.4203 12.9297 23.7056 13.17 23.946C13.4103 24.1863 13.6956 24.3769 14.0096 24.507C14.3236 24.637 14.6601 24.704 15 24.704C15.3398 24.704 15.6764 24.637 15.9904 24.507C16.3044 24.3769 16.5897 24.1863 16.83 23.946C17.0703 23.7056 17.2609 23.4203 17.391 23.1064C17.521 22.7924 17.588 22.4558 17.588 22.116H12.412Z" fill="#F0EDED"/>
<path d="M20.392 13.274V15.674C20.392 16.6096 20.596 17.5341 20.99 18.3828C21.3839 19.2315 21.9583 19.984 22.673 20.588C22.8068 20.7027 22.9022 20.8556 22.9464 21.0262C22.9907 21.1968 22.9817 21.3768 22.9206 21.5421C22.8595 21.7074 22.7493 21.85 22.6047 21.9508C22.4602 22.0516 22.2882 22.1058 22.112 22.106H7.884C7.70778 22.1058 7.53584 22.0516 7.39129 21.9508C7.24674 21.85 7.13651 21.7074 7.07542 21.5421C7.01433 21.3768 7.00531 21.1968 7.04957 21.0262C7.09383 20.8556 7.18925 20.7027 7.323 20.588C8.03792 19.985 8.6128 19.2335 9.0076 18.3857C9.40241 17.5379 9.60764 16.6142 9.609 15.679V13.279C9.609 12.5709 9.74846 11.8698 10.0194 11.2157C10.2904 10.5616 10.6875 9.96723 11.1881 9.46658C11.6888 8.96594 12.2831 8.5688 12.9373 8.29785C13.5914 8.02691 14.2925 7.88745 15.0005 7.88745C15.7085 7.88745 16.4096 8.02691 17.0637 8.29785C17.7179 8.5688 18.3122 8.96594 18.8129 9.46658C19.3135 9.96723 19.7107 10.5616 19.9816 11.2157C20.2525 11.8698 20.392 12.5709 20.392 13.279V13.274Z" fill="#39A2DD"/>
<path d="M8.96199 21.258C8.96151 21.1334 8.98809 21.0103 9.03988 20.897C9.09168 20.7837 9.16746 20.6831 9.26199 20.602C9.97664 19.998 10.551 19.2455 10.9449 18.3968C11.3389 17.5481 11.543 16.6236 11.543 15.688V13.288C11.5435 12.0269 11.9862 10.8059 12.7939 9.83756C13.6017 8.86918 14.7235 8.21468 15.964 7.98797C15.1866 7.84256 14.3866 7.87054 13.6212 8.06992C12.8559 8.2693 12.1439 8.63517 11.5362 9.14141C10.9286 9.64765 10.4401 10.2818 10.1058 10.9986C9.77141 11.7153 9.5994 12.4971 9.60199 13.288V15.688C9.60203 16.6237 9.39796 17.5481 9.004 18.3968C8.61005 19.2455 8.03569 19.9981 7.32099 20.602C7.18724 20.7167 7.09182 20.8696 7.04756 21.0402C7.0033 21.2108 7.01232 21.3908 7.07341 21.5561C7.1345 21.7214 7.24472 21.8641 7.38927 21.9649C7.53382 22.0657 7.70576 22.1198 7.88199 22.12H9.82499C9.59627 22.1194 9.37707 22.0283 9.21534 21.8666C9.05361 21.7049 8.96252 21.4857 8.96199 21.257V21.258Z" fill="#1975A8"/>
<path d="M15 25.349C14.1422 25.3482 13.3198 25.0071 12.7133 24.4006C12.1068 23.7941 11.7657 22.9717 11.765 22.114H13.059C13.059 22.6288 13.2635 23.1225 13.6275 23.4865C13.9915 23.8505 14.4852 24.055 15 24.055C15.5147 24.055 16.0084 23.8505 16.3724 23.4865C16.7365 23.1225 16.941 22.6288 16.941 22.114H18.235C18.2342 22.9717 17.8931 23.7941 17.2866 24.4006C16.6801 25.0071 15.8577 25.3482 15 25.349Z" fill="#333333"/>
<path d="M22.117 22.763H7.884C7.57541 22.7629 7.27423 22.6684 7.02102 22.492C6.7678 22.3156 6.5747 22.0659 6.46772 21.7764C6.36074 21.487 6.34502 21.1717 6.42266 20.873C6.50031 20.5744 6.66759 20.3067 6.902 20.106C7.54755 19.563 8.06647 18.8854 8.42233 18.1206C8.7782 17.3559 8.9624 16.5225 8.962 15.679V13.279C8.962 11.6776 9.59814 10.1418 10.7305 9.00946C11.8628 7.87711 13.3986 7.24097 15 7.24097C16.6014 7.24097 18.1372 7.87711 19.2695 9.00946C20.4019 10.1418 21.038 11.6776 21.038 13.279V15.679C21.0373 16.5208 21.2205 17.3526 21.5748 18.1162C21.929 18.8798 22.4458 19.5569 23.089 20.1C23.3257 20.2994 23.4953 20.5667 23.5749 20.8658C23.6545 21.1648 23.6403 21.4812 23.5341 21.7718C23.4278 22.0625 23.2348 22.3135 22.9812 22.4908C22.7275 22.6681 22.4255 22.7631 22.116 22.763H22.117ZM15 8.52997C13.7419 8.53076 12.5355 9.03077 11.6457 9.92021C10.7558 10.8097 10.2553 12.0158 10.254 13.274V15.674C10.2549 16.704 10.0307 17.7217 9.59715 18.656C9.1636 19.5903 8.53113 20.4186 7.744 21.083C7.71956 21.1032 7.6999 21.1285 7.68641 21.1572C7.67293 21.1859 7.66596 21.2173 7.666 21.249C7.66652 21.3061 7.68945 21.3607 7.72984 21.4011C7.77024 21.4415 7.82487 21.4644 7.882 21.465H22.117C22.1741 21.4644 22.2288 21.4415 22.2692 21.4011C22.3096 21.3607 22.3325 21.3061 22.333 21.249C22.3331 21.2177 22.3264 21.1868 22.3133 21.1585C22.3001 21.1302 22.2809 21.1051 22.257 21.085C21.4695 20.4206 20.8366 19.5922 20.4027 18.6578C19.9688 17.7233 19.7443 16.7053 19.745 15.675V13.275C19.7439 12.0168 19.2437 10.8105 18.3541 9.92091C17.4644 9.03128 16.2581 8.53103 15 8.52997Z" fill="#333333"/>
<path d="M14.353 5.29504H15.647V7.88304H14.353V5.29504Z" fill="#333333"/>
</g>
<defs>
<clipPath id="clip0_237_3538">
<rect width="30" height="30" fill="white"/>
</clipPath>
</defs>
</svg>
