<svg width="30" height="30" viewBox="0 0 30 30" fill="none" xmlns="http://www.w3.org/2000/svg">
<path d="M6.71302 26.914C12.67 26.914 16.761 30 19.632 30C22.503 30 28.532 28.35 28.532 15.144C28.532 1.938 20.421 0 17.263 0C2.47802 0 -3.83698 26.914 6.71302 26.914Z" fill="#F0EDED"/>
<path d="M23.949 17.561C24.0887 17.6922 24.1804 17.8664 24.2094 18.0559C24.2384 18.2453 24.203 18.439 24.109 18.606L22.677 21.083C22.581 21.2496 22.4307 21.3781 22.2512 21.4471C22.0717 21.5161 21.8739 21.5214 21.691 21.462L19.791 20.862C19.1623 21.3844 18.4499 21.7972 17.684 22.083L17.249 24.031C17.2077 24.217 17.1043 24.3834 16.9558 24.5028C16.8073 24.6222 16.6226 24.6875 16.432 24.688H13.568C13.3775 24.6875 13.1928 24.6222 13.0443 24.5028C12.8958 24.3834 12.7924 24.217 12.751 24.031L12.313 22.085C11.5474 21.7985 10.8352 21.3858 10.206 20.864L8.30603 21.464C8.12313 21.5234 7.92539 21.5181 7.74589 21.4491C7.5664 21.3801 7.41606 21.2516 7.32003 21.085L5.89103 18.606C5.79702 18.439 5.76169 18.2453 5.7907 18.0559C5.8197 17.8664 5.91136 17.6922 6.05103 17.561L7.50903 16.222C7.4502 15.8173 7.42013 15.4089 7.41903 15C7.4198 14.5912 7.45088 14.1831 7.51203 13.779L6.04903 12.44C5.9111 12.3084 5.82097 12.1346 5.7929 11.9461C5.76483 11.7575 5.80041 11.565 5.89403 11.399L7.32603 8.91799C7.42206 8.75139 7.5724 8.62283 7.75189 8.55384C7.93139 8.48484 8.12913 8.4796 8.31203 8.53899L10.212 9.13899C10.8391 8.61632 11.5497 8.20288 12.314 7.91599L12.749 5.96999C12.7904 5.78398 12.8938 5.61758 13.0423 5.49817C13.1908 5.37876 13.3755 5.31345 13.566 5.31299H16.431C16.6216 5.31345 16.8063 5.37876 16.9548 5.49817C17.1033 5.61758 17.2067 5.78398 17.248 5.96999L17.686 7.91599C18.4516 8.20245 19.1638 8.61517 19.793 9.13699L21.693 8.53699C21.8759 8.4776 22.0737 8.48284 22.2532 8.55184C22.4327 8.62083 22.583 8.74939 22.679 8.91599L24.111 11.399C24.205 11.566 24.2404 11.7597 24.2114 11.9491C24.1824 12.1385 24.0907 12.3128 23.951 12.444L22.494 13.779C22.5547 14.1832 22.5858 14.5913 22.587 15C22.5863 15.4087 22.5552 15.8168 22.494 16.221L23.949 17.561Z" fill="#F0EDED"/>
<path d="M23.949 17.561C24.0887 17.6922 24.1804 17.8664 24.2094 18.0559C24.2384 18.2453 24.203 18.439 24.109 18.606L22.677 21.083C22.581 21.2496 22.4307 21.3781 22.2512 21.4471C22.0717 21.5161 21.8739 21.5214 21.691 21.462L19.791 20.862C19.1623 21.3844 18.4499 21.7972 17.684 22.083L17.249 24.031C17.2077 24.217 17.1043 24.3834 16.9558 24.5028C16.8073 24.6222 16.6226 24.6875 16.432 24.688H13.568C13.3775 24.6875 13.1928 24.6222 13.0443 24.5028C12.8958 24.3834 12.7924 24.217 12.751 24.031L12.313 22.085C11.5474 21.7985 10.8352 21.3858 10.206 20.864L8.30603 21.464C8.12313 21.5234 7.92539 21.5181 7.74589 21.4491C7.5664 21.3801 7.41606 21.2516 7.32003 21.085L5.89103 18.606C5.79702 18.439 5.76169 18.2453 5.7907 18.0559C5.8197 17.8664 5.91136 17.6922 6.05103 17.561L7.50903 16.222C7.4502 15.8173 7.42013 15.4089 7.41903 15C7.4198 14.5912 7.45088 14.1831 7.51203 13.779L6.04903 12.44C5.9111 12.3084 5.82097 12.1346 5.7929 11.9461C5.76483 11.7575 5.80041 11.565 5.89403 11.399L7.32603 8.91799C7.42206 8.75139 7.5724 8.62283 7.75189 8.55384C7.93139 8.48484 8.12913 8.4796 8.31203 8.53899L10.212 9.13899C10.8391 8.61632 11.5497 8.20288 12.314 7.91599L12.749 5.96999C12.7904 5.78398 12.8938 5.61758 13.0423 5.49817C13.1908 5.37876 13.3755 5.31345 13.566 5.31299H16.431C16.6216 5.31345 16.8063 5.37876 16.9548 5.49817C17.1033 5.61758 17.2067 5.78398 17.248 5.96999L17.686 7.91599C18.4516 8.20245 19.1638 8.61517 19.793 9.13699L21.693 8.53699C21.8759 8.4776 22.0737 8.48284 22.2532 8.55184C22.4327 8.62083 22.583 8.74939 22.679 8.91599L24.111 11.399C24.205 11.566 24.2404 11.7597 24.2114 11.9491C24.1824 12.1385 24.0907 12.3128 23.951 12.444L22.494 13.779C22.5547 14.1832 22.5858 14.5913 22.587 15C22.5863 15.4087 22.5552 15.8168 22.494 16.221L23.949 17.561Z" fill="#F0EDED"/>
<path d="M12.144 9.135C12.773 8.61254 13.4852 8.19946 14.251 7.913L14.689 5.967C14.7303 5.78099 14.8338 5.61459 14.9823 5.49518C15.1307 5.37576 15.3155 5.31046 15.506 5.31H13.569C13.3785 5.31046 13.1937 5.37576 13.0453 5.49518C12.8968 5.61459 12.7933 5.78099 12.752 5.967L12.313 7.913C11.7738 8.11458 11.2611 8.38086 10.786 8.706L12.144 9.135Z" fill="#A4AFC1"/>
<path d="M9.26201 21.082L7.83001 18.606C7.736 18.439 7.70068 18.2453 7.72968 18.0559C7.75869 17.8665 7.85034 17.6922 7.99001 17.561L9.44901 16.222C9.38748 15.8165 9.35573 15.4071 9.35401 14.997C9.35554 14.5886 9.38729 14.1808 9.44901 13.777L7.99001 12.438C7.85128 12.3071 7.76021 12.1336 7.73122 11.945C7.70224 11.7564 7.73701 11.5636 7.83001 11.397L9.26201 8.91601C9.27813 8.89403 9.29549 8.873 9.31401 8.85301L8.31401 8.53601C8.13112 8.47662 7.93337 8.48186 7.75388 8.55086C7.57439 8.61985 7.42404 8.74841 7.32801 8.91501L5.89201 11.397C5.79889 11.5632 5.76377 11.7556 5.79221 11.9439C5.82064 12.1323 5.911 12.3058 6.04901 12.437L7.50901 13.776C7.44878 14.1802 7.41803 14.5883 7.41701 14.997C7.41781 15.4061 7.4489 15.8145 7.51001 16.219L6.04901 17.561C5.90934 17.6922 5.81769 17.8665 5.78868 18.0559C5.75968 18.2453 5.795 18.439 5.88901 18.606L7.32101 21.083C7.41704 21.2496 7.56739 21.3782 7.74688 21.4472C7.92637 21.5162 8.12412 21.5214 8.30701 21.462L9.30701 21.145C9.28797 21.1256 9.27026 21.1048 9.25401 21.083L9.26201 21.082Z" fill="#A4AFC1"/>
<path d="M14.688 24.032L14.25 22.086C13.4842 21.7996 12.7719 21.3865 12.143 20.864L10.784 21.293C11.2591 21.618 11.7719 21.8842 12.311 22.086L12.749 24.032C12.7903 24.218 12.8938 24.3844 13.0422 24.5038C13.1907 24.6232 13.3754 24.6886 13.566 24.689H15.505C15.3146 24.6883 15.1301 24.6229 14.9819 24.5035C14.8336 24.3841 14.7303 24.2179 14.689 24.032H14.688Z" fill="#A4AFC1"/>
<path d="M15 18.66C17.0214 18.66 18.66 17.0214 18.66 15C18.66 12.9787 17.0214 11.34 15 11.34C12.9787 11.34 11.34 12.9787 11.34 15C11.34 17.0214 12.9787 18.66 15 18.66Z" fill="#39A2DD"/>
<path d="M13.278 15.001C13.2797 14.2014 13.5439 13.4245 14.0301 12.7896C14.5163 12.1548 15.1975 11.6971 15.969 11.487C15.4233 11.3275 14.848 11.2973 14.2886 11.3988C13.7292 11.5003 13.2011 11.7306 12.7462 12.0716C12.2913 12.4126 11.9221 12.8549 11.6677 13.3633C11.4134 13.8718 11.281 14.4325 11.281 15.001C11.281 15.5695 11.4134 16.1303 11.6677 16.6387C11.9221 17.1472 12.2913 17.5894 12.7462 17.9304C13.2011 18.2714 13.7292 18.5018 14.2886 18.6032C14.848 18.7047 15.4233 18.6745 15.969 18.515C15.1975 18.3049 14.5163 17.8473 14.0301 17.2124C13.5439 16.5776 13.2797 15.8006 13.278 15.001Z" fill="#1975A8"/>
<path d="M21.762 4.11603L22.3708 3.50721L23.5885 4.72485L22.9797 5.33367L21.762 4.11603Z" fill="#A4AFC1"/>
<path d="M25.2631 7.617L25.8719 7.00819L27.0895 8.22582L26.4807 8.83464L25.2631 7.617Z" fill="#A4AFC1"/>
<path d="M25.1141 4.72803L26.3317 3.51039L26.9405 4.11921L25.7229 5.33685L25.1141 4.72803Z" fill="#A4AFC1"/>
<path d="M3.80505 5.714C3.54943 5.7144 3.29944 5.63896 3.08671 5.49724C2.87398 5.35551 2.70807 5.15387 2.60997 4.91782C2.51188 4.68177 2.486 4.42193 2.53563 4.17118C2.58526 3.92042 2.70815 3.69002 2.88876 3.50913C3.06937 3.32824 3.29958 3.20499 3.55025 3.15498C3.80093 3.10496 4.06081 3.13043 4.29701 3.22816C4.53321 3.32589 4.73511 3.49149 4.87717 3.704C5.01922 3.91651 5.09505 4.16639 5.09505 4.422C5.09478 4.76424 4.95885 5.09241 4.71705 5.33459C4.47524 5.57677 4.14728 5.71321 3.80505 5.714ZM3.80505 3.991C3.7198 3.991 3.63647 4.01628 3.5656 4.06364C3.49472 4.111 3.43948 4.17831 3.40686 4.25707C3.37423 4.33582 3.3657 4.42248 3.38233 4.50609C3.39896 4.58969 3.44001 4.66649 3.50028 4.72677C3.56056 4.78704 3.63736 4.82809 3.72096 4.84472C3.80457 4.86135 3.89123 4.85282 3.96998 4.8202C4.04874 4.78757 4.11605 4.73233 4.16341 4.66145C4.21077 4.59058 4.23605 4.50725 4.23605 4.422C4.23605 4.3077 4.19064 4.19807 4.10981 4.11724C4.02898 4.03641 3.91936 3.991 3.80505 3.991Z" fill="#A4AFC1"/>
<path d="M15 19.306C14.1484 19.306 13.3159 19.0534 12.6077 18.5803C11.8996 18.1071 11.3477 17.4346 11.0218 16.6478C10.6959 15.861 10.6106 14.9952 10.7768 14.1599C10.9429 13.3246 11.353 12.5574 11.9552 11.9552C12.5574 11.353 13.3247 10.9429 14.16 10.7767C14.9953 10.6106 15.861 10.6958 16.6479 11.0217C17.4347 11.3477 18.1072 11.8996 18.5803 12.6077C19.0535 13.3158 19.306 14.1483 19.306 15C19.3047 16.1416 18.8506 17.2361 18.0434 18.0433C17.2361 18.8506 16.1416 19.3046 15 19.306ZM15 11.985C14.4039 11.985 13.8212 12.1617 13.3255 12.4929C12.8299 12.8241 12.4436 13.2948 12.2155 13.8456C11.9873 14.3963 11.9276 15.0023 12.0439 15.587C12.1602 16.1716 12.4473 16.7087 12.8688 17.1302C13.2903 17.5517 13.8274 17.8388 14.412 17.9551C14.9967 18.0714 15.6027 18.0117 16.1534 17.7835C16.7042 17.5554 17.1749 17.1691 17.5061 16.6735C17.8373 16.1778 18.014 15.5951 18.014 14.999C18.0127 14.2001 17.6947 13.4344 17.1297 12.8696C16.5648 12.3048 15.7989 11.987 15 11.986V11.985Z" fill="#333333"/>
<path d="M16.433 25.336H13.568C13.2307 25.334 12.904 25.2178 12.6411 25.0065C12.3782 24.7951 12.1945 24.501 12.12 24.172L11.757 22.56C11.1579 22.3045 10.5927 21.976 10.074 21.582L8.504 22.082C8.17947 22.1843 7.82976 22.1726 7.51278 22.0489C7.19579 21.9252 6.93056 21.697 6.761 21.402L5.334 18.93C5.16776 18.6369 5.10461 18.2966 5.15465 17.9634C5.20468 17.6302 5.36501 17.3234 5.61 17.092L6.827 15.973C6.7905 15.6503 6.77214 15.3258 6.772 15.001C6.77223 14.6763 6.79026 14.3518 6.826 14.029L5.615 12.915C5.36802 12.6858 5.2054 12.3802 5.15333 12.0473C5.10127 11.7144 5.1628 11.3737 5.328 11.08L6.765 8.59503C6.93535 8.30176 7.20048 8.07522 7.51674 7.95272C7.833 7.83021 8.18154 7.81904 8.505 7.92103L10.078 8.42103C10.5967 8.02708 11.1619 7.6986 11.761 7.44303L12.124 5.82903C12.1989 5.50067 12.3826 5.20727 12.6453 4.9965C12.908 4.78573 13.2342 4.66998 13.571 4.66803H16.436C16.7733 4.67009 17.1 4.78624 17.3629 4.99758C17.6258 5.20893 17.8095 5.50303 17.884 5.83203L18.247 7.44403C18.8461 7.6996 19.4113 8.02808 19.93 8.42203L21.5 7.92203C21.8245 7.81999 22.1742 7.83176 22.4911 7.95541C22.8081 8.07906 23.0733 8.30717 23.243 8.60203L24.671 11.071C24.8372 11.3641 24.9004 11.7045 24.8504 12.0377C24.8003 12.3709 24.64 12.6777 24.395 12.909L23.178 14.028C23.2504 14.6743 23.2504 15.3267 23.178 15.973L24.389 17.086L24.395 17.091C24.6398 17.3206 24.8006 17.6257 24.8515 17.9575C24.9025 18.2893 24.8407 18.6285 24.676 18.921L23.235 21.406C23.0646 21.6985 22.7999 21.9244 22.4843 22.0467C22.1687 22.1689 21.8209 22.1804 21.498 22.079L19.925 21.579C19.4063 21.973 18.8411 22.3015 18.242 22.557L17.879 24.171C17.8049 24.4998 17.6216 24.7937 17.359 25.0049C17.0964 25.2161 16.77 25.3321 16.433 25.334V25.336ZM10.205 20.219C10.3549 20.2189 10.5002 20.2708 10.616 20.366C11.1889 20.8426 11.838 21.2192 12.536 21.48C12.6372 21.5172 12.7275 21.5791 12.7986 21.6602C12.8697 21.7412 12.9193 21.8388 12.943 21.944L13.381 23.89C13.3903 23.9329 13.4138 23.9714 13.4478 23.9992C13.4817 24.027 13.5241 24.0424 13.568 24.043H16.433C16.4767 24.0426 16.5189 24.0273 16.5527 23.9997C16.5865 23.9721 16.6099 23.9337 16.619 23.891L17.058 21.943C17.0817 21.8378 17.1313 21.7402 17.2024 21.6592C17.2735 21.5781 17.3638 21.5162 17.465 21.479C18.1629 21.218 18.812 20.8414 19.385 20.365C19.4679 20.2963 19.5668 20.2496 19.6725 20.2289C19.7782 20.2083 19.8873 20.2145 19.99 20.247L21.89 20.847C21.9313 20.8619 21.9765 20.8622 22.018 20.8478C22.0595 20.8334 22.0948 20.8053 22.118 20.768L23.555 18.283C23.575 18.2418 23.5809 18.1951 23.5719 18.1501C23.5629 18.1052 23.5394 18.0644 23.505 18.034L22.051 16.697C21.9736 16.6254 21.9149 16.5359 21.88 16.4364C21.8452 16.3369 21.8352 16.2303 21.851 16.126C21.9647 15.3793 21.9647 14.6197 21.851 13.873C21.8352 13.7688 21.8452 13.6622 21.88 13.5627C21.9149 13.4631 21.9736 13.3737 22.051 13.302L23.508 11.962C23.5405 11.9294 23.5615 11.8869 23.5676 11.8413C23.5737 11.7956 23.5648 11.7491 23.542 11.709L22.119 9.24003C22.0955 9.20132 22.0595 9.17173 22.017 9.15611C21.9745 9.14049 21.928 9.13975 21.885 9.15403L19.992 9.75403C19.8893 9.78642 19.7802 9.79259 19.6745 9.77198C19.5688 9.75137 19.47 9.70463 19.387 9.63603C18.8141 9.1595 18.165 8.78289 17.467 8.52203C17.3658 8.48487 17.2755 8.42293 17.2044 8.34187C17.1333 8.26081 17.0837 8.16323 17.06 8.05803L16.622 6.11203C16.6115 6.06949 16.5873 6.03157 16.5532 6.00411C16.519 5.97665 16.4768 5.96116 16.433 5.96003H13.568C13.5243 5.96044 13.4821 5.97572 13.4483 6.00335C13.4145 6.03098 13.3911 6.06932 13.382 6.11203L12.943 8.05403C12.9193 8.15923 12.8697 8.25681 12.7986 8.33787C12.7275 8.41893 12.6372 8.48087 12.536 8.51803C11.8381 8.7791 11.189 9.15569 10.616 9.63203C10.5327 9.70007 10.4339 9.74645 10.3283 9.76704C10.2228 9.78763 10.1138 9.78178 10.011 9.75003L8.111 9.15003C8.06958 9.13658 8.0249 9.13701 7.98374 9.15127C7.94259 9.16553 7.90722 9.19283 7.883 9.22903L6.451 11.718C6.42997 11.7589 6.42289 11.8056 6.43083 11.8509C6.43877 11.8962 6.46131 11.9377 6.495 11.969L7.947 13.304C8.02441 13.3757 8.08312 13.4651 8.11798 13.5647C8.15284 13.6642 8.16281 13.7708 8.147 13.875C8.09173 14.2478 8.06366 14.6242 8.063 15.001C8.06359 15.3783 8.092 15.755 8.148 16.128C8.16381 16.2323 8.15384 16.3389 8.11898 16.4384C8.08412 16.5379 8.02541 16.6274 7.948 16.699L6.491 18.039C6.45847 18.0717 6.43754 18.1141 6.4314 18.1598C6.42526 18.2055 6.43425 18.2519 6.457 18.292L7.885 20.761C7.90851 20.7997 7.94445 20.8293 7.98696 20.845C8.02947 20.8606 8.07602 20.8613 8.119 20.847L10.012 20.254C10.075 20.2338 10.1408 20.2237 10.207 20.224L10.205 20.219Z" fill="#333333"/>
</svg>
