<svg width="30" height="30" viewBox="0 0 30 30" fill="none" xmlns="http://www.w3.org/2000/svg">
<g clip-path="url(#clip0_237_3622)">
<path d="M26.914 23.287C26.914 17.33 30 13.239 30 10.368C30 7.49702 28.35 1.46802 15.144 1.46802C1.93799 1.46802 -0.00201416 9.58002 -0.00201416 12.737C-0.00201416 27.522 26.914 33.838 26.914 23.287Z" fill="#F0EDED"/>
<path d="M8.08563 4.07983L9.30327 2.8622L9.91209 3.47102L8.69445 4.68865L8.08563 4.07983Z" fill="#A4AFC1"/>
<path d="M4.58295 7.58069L5.80129 6.36234L6.41011 6.97116L5.19177 8.18951L4.58295 7.58069Z" fill="#A4AFC1"/>
<path d="M4.73584 3.47009L5.34466 2.86127L6.5623 4.07891L5.95348 4.68773L4.73584 3.47009Z" fill="#A4AFC1"/>
<path d="M21.891 17.799C22.4858 17.799 22.968 17.3168 22.968 16.722C22.968 16.1272 22.4858 15.645 21.891 15.645C21.2962 15.645 20.814 16.1272 20.814 16.722C20.814 17.3168 21.2962 17.799 21.891 17.799Z" fill="#F0EDED"/>
<path d="M8.111 17.799C8.70581 17.799 9.188 17.3168 9.188 16.722C9.188 16.1272 8.70581 15.645 8.111 15.645C7.51619 15.645 7.034 16.1272 7.034 16.722C7.034 17.3168 7.51619 17.799 8.111 17.799Z" fill="#F0EDED"/>
<path d="M15.001 18.23C16.0713 18.23 16.939 17.3623 16.939 16.292C16.939 15.2217 16.0713 14.354 15.001 14.354C13.9307 14.354 13.063 15.2217 13.063 16.292C13.063 17.3623 13.9307 18.23 15.001 18.23Z" fill="#F0EDED"/>
<path d="M19.091 24.473V22.535C19.0911 22.3087 19.0467 22.0846 18.9601 21.8755C18.8736 21.6664 18.7467 21.4764 18.5866 21.3164C18.4266 21.1564 18.2366 21.0294 18.0275 20.9429C17.8184 20.8564 17.5943 20.8119 17.368 20.812H12.632C12.4057 20.8119 12.1816 20.8564 11.9725 20.9429C11.7634 21.0294 11.5734 21.1564 11.4134 21.3164C11.2533 21.4764 11.1264 21.6664 11.0399 21.8755C10.9533 22.0846 10.9089 22.3087 10.909 22.535V24.473H19.091Z" fill="#F0EDED"/>
<path d="M24.69 22.751V21.674C24.6901 21.4477 24.6457 21.2236 24.5591 21.0145C24.4726 20.8054 24.3457 20.6154 24.1856 20.4554C24.0256 20.2954 23.8356 20.1685 23.6265 20.0819C23.4174 19.9954 23.1933 19.9509 22.967 19.9511H20.814C20.5877 19.9509 20.3636 19.9954 20.1545 20.0819C19.9454 20.1685 19.7554 20.2954 19.5954 20.4554C19.4353 20.6154 19.3084 20.8054 19.2219 21.0145C19.1353 21.2236 19.0909 21.4477 19.091 21.674V22.751H24.69Z" fill="#F0EDED"/>
<path d="M10.91 22.751V21.674C10.9101 21.4477 10.8656 21.2236 10.7791 21.0145C10.6925 20.8054 10.5656 20.6154 10.4056 20.4554C10.2456 20.2954 10.0556 20.1685 9.84649 20.0819C9.63739 19.9954 9.41328 19.9509 9.18697 19.9511H7.03397C6.80767 19.9509 6.58356 19.9954 6.37446 20.0819C6.16535 20.1685 5.97536 20.2954 5.81534 20.4554C5.65531 20.6154 5.5284 20.8054 5.44186 21.0145C5.35532 21.2236 5.31084 21.4477 5.31097 21.674V22.751H10.91Z" fill="#F0EDED"/>
<path d="M12.015 11.77L11.341 8.181L13.316 9.058L14.998 6.172L16.683 9.058L18.658 8.181L17.984 11.77H12.015Z" fill="#39A2DD"/>
<path d="M22.752 16.722C22.7537 16.5649 22.7906 16.4101 22.86 16.269C22.7568 16.0464 22.5807 15.8658 22.3609 15.7569C22.141 15.648 21.8906 15.6175 21.651 15.6703C21.4114 15.7231 21.197 15.8562 21.0433 16.0474C20.8897 16.2387 20.8059 16.4767 20.8059 16.722C20.8059 16.9674 20.8897 17.2054 21.0433 17.3966C21.197 17.5879 21.4114 17.7209 21.651 17.7737C21.8906 17.8266 22.141 17.796 22.3609 17.6872C22.5807 17.5783 22.7568 17.3976 22.86 17.175C22.7906 17.034 22.7537 16.8792 22.752 16.722V16.722Z" fill="#A4AFC1"/>
<path d="M8.97198 16.722C8.97372 16.5649 9.01062 16.4101 9.07998 16.269C8.97678 16.0464 8.80069 15.8658 8.58083 15.7569C8.36097 15.648 8.11052 15.6175 7.87094 15.6703C7.63135 15.7231 7.41699 15.8562 7.26332 16.0474C7.10965 16.2387 7.02588 16.4767 7.02588 16.722C7.02588 16.9674 7.10965 17.2054 7.26332 17.3966C7.41699 17.5879 7.63135 17.7209 7.87094 17.7737C8.11052 17.8266 8.36097 17.796 8.58083 17.6872C8.80069 17.5783 8.97678 17.3976 9.07998 17.175C9.01062 17.034 8.97372 16.8792 8.97198 16.722V16.722Z" fill="#A4AFC1"/>
<path d="M14.998 16.291C14.9987 15.9522 15.0886 15.6196 15.2587 15.3266C15.4289 15.0337 15.6731 14.7906 15.967 14.622C15.6726 14.4483 15.3376 14.3555 14.9959 14.3531C14.6541 14.3506 14.3178 14.4386 14.021 14.608C13.7242 14.7775 13.4775 15.0224 13.3059 15.318C13.1343 15.6136 13.0439 15.9493 13.0439 16.291C13.0439 16.6328 13.1343 16.9685 13.3059 17.264C13.4775 17.5596 13.7242 17.8045 14.021 17.974C14.3178 18.1435 14.6541 18.2314 14.9959 18.229C15.3376 18.2265 15.6726 18.1337 15.967 17.96C15.6731 17.7914 15.4289 17.5484 15.2587 17.2554C15.0886 16.9624 14.9987 16.6298 14.998 16.291Z" fill="#A4AFC1"/>
<path d="M14.57 20.813H12.632C12.4057 20.8129 12.1816 20.8573 11.9725 20.9439C11.7634 21.0304 11.5734 21.1573 11.4134 21.3174C11.2533 21.4774 11.1264 21.6674 11.0399 21.8765C10.9533 22.0856 10.9089 22.3097 10.909 22.536V24.474H12.847V22.535C12.847 22.3088 12.8916 22.0848 12.9782 21.8758C13.0648 21.6668 13.1917 21.4769 13.3517 21.317C13.5117 21.1571 13.7017 21.0303 13.9107 20.9438C14.1197 20.8573 14.3438 20.8129 14.57 20.813V20.813Z" fill="#A4AFC1"/>
<path d="M22.752 19.952H20.814C20.5877 19.9519 20.3636 19.9964 20.1545 20.0829C19.9454 20.1695 19.7554 20.2964 19.5954 20.4564C19.4353 20.6164 19.3084 20.8064 19.2219 21.0155C19.1353 21.2246 19.0909 21.4487 19.091 21.675V22.752H21.029V21.674C21.029 21.4478 21.0736 21.2238 21.1602 21.0148C21.2468 20.8058 21.3737 20.616 21.5337 20.456C21.6937 20.2961 21.8837 20.1693 22.0927 20.0828C22.3018 19.9963 22.5258 19.9519 22.752 19.952V19.952Z" fill="#A4AFC1"/>
<path d="M8.97197 19.952H7.03397C6.80767 19.9519 6.58356 19.9964 6.37446 20.0829C6.16535 20.1695 5.97536 20.2964 5.81534 20.4564C5.65531 20.6164 5.5284 20.8064 5.44186 21.0155C5.35532 21.2246 5.31084 21.4487 5.31097 21.675V22.752H7.24897V21.674C7.24897 21.4478 7.29355 21.2238 7.38015 21.0148C7.46675 20.8058 7.59368 20.616 7.75369 20.456C7.9137 20.2961 8.10365 20.1693 8.31269 20.0828C8.52172 19.9963 8.74575 19.9519 8.97197 19.952V19.952Z" fill="#A4AFC1"/>
<path d="M13.316 9.05803L11.34 8.18103L12.014 11.77H13.952L13.412 8.89703L13.316 9.05803Z" fill="#1975A8"/>
<path d="M21.891 18.445C21.5502 18.445 21.2171 18.344 20.9337 18.1546C20.6504 17.9653 20.4295 17.6962 20.2991 17.3814C20.1687 17.0666 20.1346 16.7201 20.2011 16.3859C20.2676 16.0517 20.4317 15.7446 20.6726 15.5037C20.9136 15.2627 21.2206 15.0986 21.5548 15.0321C21.8891 14.9656 22.2355 14.9998 22.5503 15.1302C22.8652 15.2606 23.1343 15.4814 23.3236 15.7648C23.5129 16.0481 23.614 16.3812 23.614 16.722C23.6137 17.1789 23.4321 17.617 23.109 17.9401C22.786 18.2631 22.3479 18.4448 21.891 18.445V18.445ZM21.891 16.292C21.8057 16.292 21.7224 16.3173 21.6515 16.3647C21.5806 16.412 21.5254 16.4793 21.4928 16.5581C21.4602 16.6368 21.4516 16.7235 21.4683 16.8071C21.4849 16.8907 21.5259 16.9675 21.5862 17.0278C21.6465 17.0881 21.7233 17.1291 21.8069 17.1457C21.8905 17.1624 21.9771 17.1538 22.0559 17.1212C22.1347 17.0886 22.202 17.0334 22.2493 16.9625C22.2967 16.8916 22.322 16.8083 22.322 16.723C22.3221 16.6663 22.311 16.6102 22.2894 16.5578C22.2678 16.5054 22.2361 16.4577 22.1961 16.4176C22.1561 16.3775 22.1085 16.3456 22.0561 16.3239C22.0038 16.3022 21.9477 16.291 21.891 16.291V16.292Z" fill="#333333"/>
<path d="M25.336 22.751H24.044V21.674C24.0437 21.3885 23.9302 21.1147 23.7283 20.9128C23.5263 20.7109 23.2525 20.5973 22.967 20.597H20.167V19.306H22.967C23.5949 19.3066 24.1969 19.5562 24.6408 20.0002C25.0848 20.4442 25.3345 21.0462 25.335 21.674L25.336 22.751Z" fill="#333333"/>
<path d="M8.111 18.445C7.77022 18.445 7.4371 18.344 7.15375 18.1546C6.87041 17.9653 6.64957 17.6962 6.51916 17.3814C6.38875 17.0666 6.35463 16.7201 6.42111 16.3859C6.48759 16.0517 6.65169 15.7446 6.89266 15.5037C7.13362 15.2627 7.44063 15.0986 7.77486 15.0321C8.10909 14.9656 8.45553 14.9998 8.77036 15.1302C9.0852 15.2606 9.3543 15.4814 9.54362 15.7648C9.73295 16.0481 9.834 16.3812 9.834 16.722C9.83374 17.1789 9.65212 17.617 9.32905 17.9401C9.00599 18.2631 8.56789 18.4448 8.111 18.445V18.445ZM8.111 16.292C8.02576 16.292 7.94243 16.3173 7.87155 16.3647C7.80067 16.412 7.74543 16.4793 7.71281 16.5581C7.68019 16.6368 7.67165 16.7235 7.68828 16.8071C7.70491 16.8907 7.74596 16.9675 7.80624 17.0278C7.86651 17.0881 7.94331 17.1291 8.02692 17.1457C8.11052 17.1624 8.19718 17.1538 8.27594 17.1212C8.35469 17.0886 8.42201 17.0334 8.46936 16.9625C8.51672 16.8916 8.542 16.8083 8.542 16.723C8.54213 16.6663 8.53108 16.6102 8.50948 16.5578C8.48788 16.5054 8.45615 16.4577 8.41612 16.4176C8.37608 16.3775 8.32853 16.3456 8.27617 16.3239C8.22381 16.3022 8.16769 16.291 8.111 16.291V16.292Z" fill="#333333"/>
<path d="M5.95702 22.751H4.66602V21.674C4.66655 21.0462 4.9162 20.4442 5.36017 20.0002C5.80414 19.5562 6.40615 19.3066 7.03402 19.306H9.83402V20.597H7.03402C6.74846 20.5973 6.47467 20.7109 6.27275 20.9128C6.07083 21.1147 5.95728 21.3885 5.95702 21.674V22.751Z" fill="#333333"/>
<path d="M14.998 18.875C14.4869 18.875 13.9873 18.7235 13.5624 18.4396C13.1375 18.1556 12.8063 17.7521 12.6107 17.2799C12.4151 16.8077 12.3639 16.2882 12.4637 15.7869C12.5634 15.2857 12.8095 14.8252 13.1708 14.4639C13.5322 14.1025 13.9926 13.8564 14.4939 13.7567C14.9951 13.657 15.5147 13.7082 15.9869 13.9037C16.459 14.0993 16.8626 14.4305 17.1465 14.8554C17.4305 15.2804 17.582 15.78 17.582 16.291C17.5812 16.9761 17.3087 17.6329 16.8243 18.1173C16.3399 18.6017 15.6831 18.8742 14.998 18.875V18.875ZM14.998 14.999C14.7425 14.999 14.4927 15.0748 14.2802 15.2168C14.0677 15.3587 13.9021 15.5605 13.8044 15.7966C13.7066 16.0327 13.681 16.2925 13.7308 16.5431C13.7807 16.7937 13.9037 17.0239 14.0844 17.2046C14.2651 17.3853 14.4953 17.5084 14.7459 17.5582C14.9966 17.6081 15.2563 17.5825 15.4924 17.4847C15.7285 17.3869 15.9303 17.2213 16.0723 17.0088C16.2142 16.7964 16.29 16.5466 16.29 16.291C16.2901 16.1212 16.2568 15.9531 16.192 15.7961C16.1271 15.6392 16.032 15.4966 15.912 15.3765C15.792 15.2563 15.6496 15.1609 15.4927 15.0958C15.3359 15.0307 15.1678 14.9972 14.998 14.997V14.999Z" fill="#333333"/>
<path d="M19.737 24.473H18.446V22.535C18.4457 22.2494 18.3322 21.9757 18.1302 21.7737C17.9283 21.5718 17.6545 21.4583 17.369 21.458H12.632C12.3464 21.4583 12.0726 21.5718 11.8707 21.7737C11.6688 21.9757 11.5552 22.2494 11.555 22.535V24.473H10.264V22.535C10.2645 21.9071 10.5142 21.3051 10.9581 20.8611C11.4021 20.4172 12.0041 20.1675 12.632 20.167H17.369C17.9968 20.1675 18.5988 20.4172 19.0428 20.8611C19.4868 21.3051 19.7364 21.9071 19.737 22.535V24.473Z" fill="#333333"/>
<path d="M17.987 12.416H12.014C11.8634 12.416 11.7176 12.3635 11.6017 12.2675C11.4857 12.1714 11.407 12.0379 11.379 11.89L10.705 8.29698C10.6828 8.18083 10.693 8.06084 10.7343 7.95006C10.7757 7.83928 10.8466 7.74198 10.9394 7.66875C11.0323 7.59551 11.1434 7.54916 11.2608 7.53474C11.3781 7.52033 11.4972 7.53839 11.605 7.58698L13.052 8.22898L14.442 5.84698C14.5034 5.7554 14.5865 5.68036 14.6838 5.62847C14.7811 5.57658 14.8897 5.54944 15 5.54944C15.1103 5.54944 15.2189 5.57658 15.3162 5.62847C15.4135 5.68036 15.4965 5.7554 15.558 5.84698L16.952 8.23398L18.398 7.59098C18.5058 7.54239 18.6248 7.52433 18.7422 7.53874C18.8596 7.55316 18.9707 7.59951 19.0635 7.67274C19.1564 7.74598 19.2273 7.84328 19.2687 7.95406C19.31 8.06484 19.3201 8.18483 19.298 8.30098L18.624 11.89C18.5958 12.038 18.5169 12.1715 18.4007 12.2676C18.2846 12.3636 18.1387 12.4161 17.988 12.416H17.987ZM12.551 11.124H17.451L17.798 9.26998L16.946 9.64798C16.8007 9.71246 16.6366 9.72108 16.4853 9.67219C16.334 9.62329 16.2061 9.52032 16.126 9.38298L14.998 7.45298L13.873 9.38398C13.7927 9.52116 13.6648 9.62399 13.5135 9.67286C13.3623 9.72174 13.1984 9.71324 13.053 9.64898L12.198 9.27098L12.551 11.124Z" fill="#333333"/>
<path d="M1.22101 23.181H28.781V24.473H1.22101V23.181Z" fill="#333333"/>
</g>
<defs>
<clipPath id="clip0_237_3622">
<rect width="30" height="30" fill="white"/>
</clipPath>
</defs>
</svg>
