<svg width="30" height="30" viewBox="0 0 30 30" fill="none" xmlns="http://www.w3.org/2000/svg">
<g clip-path="url(#clip0_237_3556)">
<path d="M6.55696 4.38008C5.01496 10.0801 1.00196 13.2001 0.256961 15.9481C-0.488039 18.6961 -0.464039 24.8941 12.177 28.3121C24.818 31.7301 28.777 24.4681 29.589 21.4451C33.416 7.29208 9.28696 -5.71892 6.55696 4.38008Z" fill="#F0EDED"/>
<path d="M22.903 5.35205H7.10301C6.64973 5.35284 6.21524 5.53326 5.89473 5.85377C5.57421 6.17429 5.3938 6.60877 5.39301 7.06205V10.9031C5.39433 11.356 5.57497 11.79 5.89543 12.11C6.21589 12.4301 6.65007 12.6103 7.10301 12.6111H22.903C23.3556 12.6097 23.7893 12.4294 24.1093 12.1093C24.4293 11.7893 24.6097 11.3556 24.611 10.9031V7.06205C24.6102 6.60912 24.4301 6.17494 24.11 5.85448C23.7899 5.53402 23.3559 5.35337 22.903 5.35205Z" fill="#F0EDED"/>
<path d="M7.31501 10.9031V7.06205C7.3158 6.60912 7.49594 6.17494 7.81602 5.85448C8.1361 5.53402 8.57008 5.35337 9.02301 5.35205H7.10301C6.64973 5.35284 6.21524 5.53326 5.89473 5.85377C5.57421 6.17429 5.3938 6.60877 5.39301 7.06205V10.9031C5.39433 11.356 5.57497 11.79 5.89543 12.11C6.21589 12.4301 6.65007 12.6103 7.10301 12.6111H9.02301C8.57042 12.6097 8.13675 12.4294 7.81672 12.1093C7.4967 11.7893 7.31632 11.3556 7.31501 10.9031Z" fill="#A4AFC1"/>
<path d="M22.046 24.5671V9.62207H7.95496V24.5671L10.517 22.4321L12.869 24.5671L15.004 22.4321L17.139 24.5671L19.488 22.4321L22.046 24.5671Z" fill="#39A2DD"/>
<path d="M12.439 22.4321L11.439 23.2671L12.869 24.5671L13.784 23.6521L12.439 22.4321Z" fill="#1975A8"/>
<path d="M9.87596 9.62207H7.95496V24.5671L9.87696 22.9671L9.87596 9.62207Z" fill="#1975A8"/>
<path d="M16.923 22.4321L15.962 23.3931L17.14 24.5711L18.14 23.6531L16.923 22.4321Z" fill="#1975A8"/>
<path d="M21.4059 22.4321L20.4869 23.2671L22.0459 24.5671V22.9671L21.4059 22.4321Z" fill="#1975A8"/>
<path d="M21.361 27.1702L22.5687 25.9624L23.1726 26.5663L21.9648 27.774L21.361 27.1702Z" fill="#A4AFC1"/>
<path d="M24.8329 23.6981L26.0407 22.4904L26.6446 23.0943L25.4368 24.302L24.8329 23.6981Z" fill="#A4AFC1"/>
<path d="M24.832 26.7172L25.4358 26.1133L26.6436 27.321L26.0397 27.9249L24.832 26.7172Z" fill="#A4AFC1"/>
<path d="M3.79498 25.8491C3.54162 25.8491 3.29395 25.774 3.08329 25.6332C2.87263 25.4925 2.70844 25.2924 2.61149 25.0583C2.51453 24.8243 2.48916 24.5667 2.53859 24.3182C2.58802 24.0697 2.71002 23.8415 2.88917 23.6623C3.06832 23.4832 3.29658 23.3612 3.54507 23.3117C3.79356 23.2623 4.05112 23.2877 4.2852 23.3846C4.51927 23.4816 4.71933 23.6458 4.86009 23.8564C5.00085 24.0671 5.07598 24.3148 5.07598 24.5681C5.07545 24.9077 4.94032 25.2332 4.7002 25.4733C4.46008 25.7134 4.13456 25.8486 3.79498 25.8491ZM3.79498 24.1411C3.71053 24.1411 3.62797 24.1662 3.55775 24.2131C3.48753 24.26 3.4328 24.3267 3.40048 24.4047C3.36816 24.4827 3.35971 24.5686 3.37618 24.6514C3.39266 24.7342 3.43333 24.8103 3.49304 24.87C3.55276 24.9298 3.62884 24.9704 3.71167 24.9869C3.7945 25.0034 3.88036 24.9949 3.95838 24.9626C4.03641 24.9303 4.1031 24.8756 4.15002 24.8053C4.19693 24.7351 4.22198 24.6526 4.22198 24.5681C4.22198 24.512 4.21093 24.4565 4.18947 24.4047C4.16802 24.3529 4.13656 24.3058 4.09691 24.2662C4.05726 24.2265 4.01019 24.1951 3.95838 24.1736C3.90658 24.1522 3.85105 24.1411 3.79498 24.1411Z" fill="#A4AFC1"/>
<path d="M22.9 13.253H22.046V11.972H22.9C23.1831 11.9718 23.4546 11.8592 23.6549 11.6589C23.8551 11.4587 23.9677 11.1872 23.968 10.904V7.06104C23.9677 6.77787 23.8551 6.50637 23.6549 6.30614C23.4546 6.10591 23.1831 5.9933 22.9 5.99304H7.10095C6.8177 5.99304 6.54605 6.10556 6.34576 6.30585C6.14547 6.50613 6.03295 6.77778 6.03295 7.06104V10.904C6.03322 11.1872 6.14582 11.4587 6.34606 11.6589C6.54629 11.8592 6.81778 11.9718 7.10095 11.972H7.95495V13.253H7.10095C6.47812 13.2525 5.88095 13.0049 5.44054 12.5644C5.00014 12.124 4.75248 11.5269 4.75195 10.904V7.06104C4.75248 6.4382 5.00014 5.84104 5.44054 5.40063C5.88095 4.96022 6.47812 4.71257 7.10095 4.71204H22.901C23.5235 4.71309 24.1203 4.96095 24.5604 5.40127C25.0006 5.84159 25.2482 6.43846 25.249 7.06104V10.904C25.2484 11.5269 25.0008 12.124 24.5604 12.5644C24.12 13.0049 23.5228 13.2525 22.9 13.253Z" fill="#333333"/>
<path d="M22.046 25.2091C21.896 25.2092 21.7508 25.1564 21.636 25.0601L19.502 23.2821L17.566 25.0421C17.4439 25.1523 17.2842 25.2115 17.1198 25.2076C16.9554 25.2037 16.7987 25.137 16.682 25.0211L15 23.3391L13.318 25.0221C13.2016 25.1386 13.0448 25.2059 12.8802 25.2098C12.7155 25.2137 12.5557 25.154 12.434 25.0431L10.498 23.2831L8.36397 25.0611C8.27044 25.1391 8.15658 25.1888 8.03577 25.2044C7.91496 25.2199 7.79222 25.2007 7.68196 25.149C7.5717 25.0972 7.4785 25.015 7.41332 24.9121C7.34813 24.8092 7.31367 24.6899 7.31397 24.5681V9.62306C7.31397 9.45305 7.3815 9.29001 7.50171 9.1698C7.62192 9.04959 7.78496 8.98206 7.95497 8.98206H22.046C22.216 8.98206 22.379 9.04959 22.4992 9.1698C22.6194 9.29001 22.687 9.45305 22.687 9.62306V24.5681C22.6871 24.6898 22.6525 24.8091 22.5871 24.9119C22.5217 25.0147 22.4284 25.0966 22.318 25.1481C22.233 25.1884 22.14 25.2092 22.046 25.2091ZM15 21.7931C15.0842 21.7928 15.1676 21.8093 15.2453 21.8416C15.3231 21.8738 15.3937 21.9212 15.453 21.9811L17.153 23.6811L19.053 21.9571C19.1673 21.8532 19.3152 21.7942 19.4696 21.7909C19.624 21.7876 19.7743 21.8402 19.893 21.9391L21.405 23.1991V10.2631H8.59397V23.1981L10.106 21.9381C10.2248 21.8396 10.3751 21.7873 10.5293 21.7906C10.6836 21.7939 10.8315 21.8526 10.946 21.9561L12.846 23.6801L14.546 21.9801C14.6056 21.9204 14.6764 21.8732 14.7543 21.8409C14.8322 21.8086 14.9157 21.792 15 21.7921V21.7931Z" fill="#333333"/>
<path d="M15.325 18.805H13.506V17.524H15.325C15.4666 17.524 15.6024 17.4678 15.7026 17.3676C15.8027 17.2675 15.859 17.1317 15.859 16.99C15.859 16.8484 15.8027 16.7126 15.7026 16.6125C15.6024 16.5123 15.4666 16.456 15.325 16.456H14.676C14.1946 16.456 13.7329 16.2648 13.3926 15.9244C13.0522 15.5841 12.861 15.1224 12.861 14.641C12.861 14.1597 13.0522 13.698 13.3926 13.3577C13.7329 13.0173 14.1946 12.826 14.676 12.826H16.495V14.108H14.676C14.5343 14.108 14.3985 14.1643 14.2984 14.2645C14.1982 14.3646 14.142 14.5004 14.142 14.642C14.142 14.7837 14.1982 14.9195 14.2984 15.0196C14.3985 15.1198 14.5343 15.1761 14.676 15.1761H15.325C15.8063 15.1761 16.268 15.3673 16.6084 15.7077C16.9487 16.048 17.14 16.5097 17.14 16.991C17.14 17.4724 16.9487 17.9341 16.6084 18.2744C16.268 18.6148 15.8063 18.806 15.325 18.806V18.805Z" fill="#333333"/>
<path d="M14.36 12.1851H15.641V13.4661H14.36V12.1851Z" fill="#333333"/>
<path d="M14.36 18.1631H15.641V19.4441H14.36V18.1631Z" fill="#333333"/>
</g>
<defs>
<clipPath id="clip0_237_3556">
<rect width="30" height="30" fill="white"/>
</clipPath>
</defs>
</svg>
