<svg width="30" height="30" viewBox="0 0 30 30" fill="none" xmlns="http://www.w3.org/2000/svg">
<g clip-path="url(#clip0_237_3689)">
<path d="M23.123 2.85399C17.158 2.95999 13.003 -0.0540121 10.128 0.000987902C7.253 0.0559879 1.247 1.81999 1.495 15.045C1.743 28.27 9.9 30.054 13.062 29.999C27.867 29.722 33.688 2.65399 23.123 2.85399Z" fill="#F0EDED"/>
<path d="M24.704 12.109V13.817L22.116 15.172V9.953L24.022 10.971C24.2273 11.082 24.3991 11.2462 24.5191 11.4465C24.6391 11.6467 24.7029 11.8756 24.704 12.109Z" fill="#F0EDED"/>
<path d="M7.88298 9.953V15.172L5.29498 13.817V12.109C5.29611 11.8755 5.36013 11.6465 5.48031 11.4463C5.6005 11.246 5.77241 11.0818 5.97798 10.971L7.88298 9.953Z" fill="#F0EDED"/>
<path d="M24.704 13.817V22.547C24.7042 22.717 24.671 22.8854 24.606 23.0425C24.5411 23.1996 24.4458 23.3424 24.3256 23.4626C24.2054 23.5828 24.0626 23.6781 23.9055 23.7431C23.7484 23.808 23.58 23.8413 23.41 23.841H6.58898C6.41898 23.8413 6.25059 23.808 6.09348 23.7431C5.93637 23.6781 5.79361 23.5828 5.6734 23.4626C5.55319 23.3424 5.45788 23.1996 5.39295 23.0425C5.32801 22.8854 5.29472 22.717 5.29498 22.547V13.817L7.88298 15.172H7.89198L14.198 18.472C14.4456 18.5988 14.7198 18.665 14.998 18.665C15.2762 18.665 15.5504 18.5988 15.798 18.472L22.104 15.172H22.113L24.704 13.817Z" fill="#F0EDED"/>
<path d="M22.116 7.01998V15.172H22.107L15.801 18.472C15.5534 18.5988 15.2792 18.6649 15.001 18.6649C14.7228 18.6649 14.4486 18.5988 14.201 18.472L7.895 15.172H7.883V7.01998C7.88431 6.56289 8.06648 6.1249 8.38969 5.80168C8.71291 5.47847 9.1509 5.2963 9.608 5.29498H20.391C20.8481 5.2963 21.2861 5.47847 21.6093 5.80168C21.9325 6.1249 22.1147 6.56289 22.116 7.01998Z" fill="#39A2DD"/>
<path d="M24.057 10.996C24.045 10.989 24.035 10.978 24.022 10.971L22.116 9.953V15.172L24.057 14.157V10.996Z" fill="#A4AFC1"/>
<path d="M7.236 13.817V12.109C7.23776 11.8831 7.29835 11.6616 7.4118 11.4662C7.52526 11.2709 7.68766 11.1085 7.883 10.995V9.953L5.978 10.971C5.77265 11.0822 5.60105 11.2466 5.48121 11.4471C5.36138 11.6475 5.29775 11.8765 5.297 12.11V13.817L7.883 15.172V14.156L7.236 13.817Z" fill="#A4AFC1"/>
<path d="M7.23598 22.548V14.834L5.29498 13.818V22.548C5.29472 22.718 5.32801 22.8864 5.39295 23.0435C5.45788 23.2006 5.55319 23.3434 5.6734 23.4636C5.79361 23.5838 5.93637 23.6791 6.09348 23.744C6.25059 23.809 6.41898 23.8423 6.58898 23.842H8.52998C8.35998 23.8423 8.1916 23.809 8.03448 23.744C7.87737 23.6791 7.73461 23.5838 7.6144 23.4636C7.49419 23.3434 7.39888 23.2006 7.33395 23.0435C7.26901 22.8864 7.23572 22.718 7.23598 22.548Z" fill="#A4AFC1"/>
<path d="M9.832 15.172H9.824V7.01998C9.82531 6.56289 10.0075 6.1249 10.3307 5.80168C10.6539 5.47847 11.0919 5.2963 11.549 5.29498H9.608C9.1509 5.2963 8.71291 5.47847 8.38969 5.80168C8.06648 6.1249 7.88431 6.56289 7.883 7.01998V15.172H7.892L14.198 18.472C14.4456 18.5988 14.7198 18.6649 14.998 18.6649C15.2762 18.6649 15.5504 18.5988 15.798 18.472L15.966 18.384L9.832 15.172Z" fill="#1975A8"/>
<path d="M26.213 10.384C25.9571 10.384 25.7069 10.3081 25.4941 10.1659C25.2813 10.0237 25.1154 9.8216 25.0175 9.58515C24.9196 9.34871 24.8939 9.08852 24.9439 8.83751C24.9938 8.5865 25.117 8.35593 25.298 8.17496C25.479 7.99399 25.7095 7.87075 25.9606 7.82082C26.2116 7.77089 26.4718 7.79652 26.7082 7.89446C26.9446 7.9924 27.1467 8.15826 27.2889 8.37105C27.4311 8.58385 27.507 8.83403 27.507 9.08996C27.5054 9.43266 27.3686 9.76088 27.1263 10.0032C26.8839 10.2455 26.5557 10.3824 26.213 10.384ZM26.213 8.65896C26.1278 8.65896 26.0444 8.68424 25.9736 8.7316C25.9027 8.77896 25.8474 8.84627 25.8148 8.92502C25.7822 9.00378 25.7737 9.09044 25.7903 9.17404C25.8069 9.25765 25.848 9.33445 25.9082 9.39472C25.9685 9.455 26.0453 9.49605 26.1289 9.51268C26.2125 9.52931 26.2992 9.52077 26.3779 9.48815C26.4567 9.45553 26.524 9.40029 26.5714 9.32941C26.6187 9.25853 26.644 9.1752 26.644 9.08996C26.644 8.97565 26.5986 8.86603 26.5178 8.7852C26.4369 8.70437 26.3273 8.65896 26.213 8.65896Z" fill="#A4AFC1"/>
<path d="M5.289 2.84094L5.89853 2.23142L7.11829 3.45118L6.50876 4.0607L5.289 2.84094Z" fill="#A4AFC1"/>
<path d="M5.13702 6.95697L6.35678 5.73721L6.96631 6.34674L5.74655 7.5665L5.13702 6.95697Z" fill="#A4AFC1"/>
<path d="M8.64404 3.45099L9.8638 2.23123L10.4733 2.84076L9.25357 4.06051L8.64404 3.45099Z" fill="#A4AFC1"/>
<path d="M23.41 24.488H6.58901C6.07439 24.4875 5.58099 24.2828 5.2171 23.9189C4.85321 23.555 4.64854 23.0616 4.64801 22.547V12.11C4.64819 11.7599 4.74309 11.4164 4.92267 11.1159C5.10224 10.8153 5.35979 10.569 5.66801 10.403L7.57701 9.383L8.18701 10.524L6.28101 11.542C6.17918 11.5981 6.09412 11.6802 6.03454 11.7801C5.97497 11.8799 5.94303 11.9938 5.94201 12.11V22.547C5.94201 22.7186 6.01018 22.8832 6.13151 23.0045C6.25285 23.1258 6.41742 23.194 6.58901 23.194H23.41C23.5816 23.194 23.7462 23.1258 23.8675 23.0045C23.9888 22.8832 24.057 22.7186 24.057 22.547V12.11C24.0558 11.9933 24.0234 11.8791 23.9633 11.779C23.9032 11.679 23.8175 11.5968 23.715 11.541L21.815 10.525L22.425 9.384L24.331 10.402C24.6403 10.5676 24.8988 10.8141 25.0791 11.115C25.2595 11.416 25.3548 11.7602 25.355 12.111V22.547C25.3547 22.8022 25.3042 23.0548 25.2063 23.2904C25.1085 23.526 24.9651 23.7401 24.7845 23.9203C24.6039 24.1006 24.3896 24.2435 24.1537 24.3409C23.9179 24.4383 23.6652 24.4883 23.41 24.488Z" fill="#333333"/>
<path d="M19.76 15.662L24.3938 13.2405L24.9924 14.3861L20.3587 16.8076L19.76 15.662Z" fill="#333333"/>
<path d="M14.999 19.31C14.6163 19.3104 14.239 19.2189 13.899 19.043L4.99902 14.391L5.59902 13.245L14.499 17.894C14.6553 17.9731 14.8279 18.0143 15.003 18.0143C15.1781 18.0143 15.3508 17.9731 15.507 17.894L18.189 16.494L18.789 17.64L16.105 19.04C15.7652 19.2165 15.3879 19.3087 15.005 19.309L14.999 19.31Z" fill="#333333"/>
<path d="M22.763 15.172H21.469V7.02001C21.4685 6.73427 21.3547 6.46038 21.1527 6.25833C20.9506 6.05628 20.6768 5.94254 20.391 5.94201H9.61302C9.47111 5.94162 9.33051 5.96919 9.19927 6.02317C9.06802 6.07714 8.94869 6.15645 8.84811 6.25657C8.74754 6.35668 8.66767 6.47564 8.61309 6.60663C8.55851 6.73763 8.53029 6.8781 8.53002 7.02001V15.172H7.23602V7.02001C7.23682 6.3903 7.48767 5.78667 7.93341 5.34186C8.37916 4.89706 8.98331 4.64748 9.61302 4.64801H20.391C21.0199 4.6488 21.6227 4.89897 22.0674 5.34363C22.5121 5.7883 22.7622 6.39116 22.763 7.02001V15.172Z" fill="#333333"/>
<path d="M1.198 23.194H28.798V24.488H1.198V23.194Z" fill="#333333"/>
</g>
<defs>
<clipPath id="clip0_237_3689">
<rect width="30" height="30" fill="white"/>
</clipPath>
</defs>
</svg>
