<svg width="30" height="30" viewBox="0 0 30 30" fill="none" xmlns="http://www.w3.org/2000/svg">
<path d="M6.98073 26.5275C12.7449 26.5275 16.7032 29.5134 19.4807 29.5134C22.2582 29.5134 28.0916 27.9167 28.0916 15.1392C28.0916 2.36167 20.2441 0.48584 17.1891 0.48584C2.88323 0.48584 -3.2276 26.5275 6.98073 26.5275Z" fill="#F0EDED"/>
<path d="M7.48431 3.71033L8.66282 2.53182L9.25208 3.12107L8.07357 4.29958L7.48431 3.71033Z" fill="#A4AFC1"/>
<path d="M4.09607 7.09808L5.27458 5.91957L5.86384 6.50883L4.68532 7.68734L4.09607 7.09808Z" fill="#A4AFC1"/>
<path d="M4.09589 2.97302L4.68514 2.38377L5.86365 3.56228L5.2744 4.15153L4.09589 2.97302Z" fill="#A4AFC1"/>
<path d="M25.5258 27.0217C24.8366 27.0217 24.2758 26.4608 24.2758 25.7717C24.2758 25.0825 24.8366 24.5217 25.5258 24.5217C26.2149 24.5217 26.7758 25.0825 26.7758 25.7717C26.7758 26.4608 26.2149 27.0217 25.5258 27.0217ZM25.5258 25.355C25.2958 25.355 25.1091 25.5417 25.1091 25.7717C25.1091 26.0017 25.2958 26.1883 25.5258 26.1883C25.7558 26.1883 25.9424 26.0017 25.9424 25.7717C25.9424 25.5417 25.7558 25.355 25.5258 25.355Z" fill="#A4AFC1"/>
<path d="M20.4758 9.52414L21.6283 8.37164L20.4758 9.52414Z" fill="#39A2DD"/>
<path d="M20.4758 20.4758L21.6283 21.6283L20.4758 20.4758Z" fill="#39A2DD"/>
<path d="M9.52414 20.4758L8.37164 21.6283L9.52414 20.4758Z" fill="#39A2DD"/>
<path d="M9.52414 9.52414L8.37164 8.37164L9.52414 9.52414Z" fill="#39A2DD"/>
<path d="M15.2083 11.875C16.8192 11.875 18.125 13.1808 18.125 14.7917L15.2083 11.875Z" fill="#39A2DD"/>
<path d="M20.2084 15C20.2084 11.7567 17.2434 9.20582 13.8759 9.90916C11.9026 10.3217 10.3101 11.9217 9.90506 13.8967C9.46589 16.0358 10.3401 18.0058 11.8684 19.1558C12.6934 19.7775 13.1251 20.7933 13.1251 21.8267V23.2967C13.1251 24.0075 13.4984 24.375 13.9584 24.375H16.0417C16.5017 24.375 16.8751 24.0017 16.8751 23.5417V21.6892C16.8751 20.6567 17.4059 19.7283 18.2184 19.09C19.4292 18.1375 20.2084 16.6608 20.2084 15Z" fill="#39A2DD"/>
<path d="M14.7917 23.2967V21.8267C14.7917 20.7934 14.3601 19.7775 13.5351 19.1559C12.0076 18.005 11.1326 16.0359 11.5717 13.8967C11.9776 11.9217 13.5692 10.3217 15.5426 9.90918C15.6417 9.88835 15.7401 9.88002 15.8384 9.86418C15.2134 9.76252 14.5542 9.76668 13.8759 9.90918C11.9026 10.3217 10.3101 11.9217 9.90506 13.8967C9.46589 16.0359 10.3401 18.0059 11.8684 19.1559C12.6934 19.7775 13.1251 20.7934 13.1251 21.8267V23.2967C13.1251 24.0075 13.4984 24.375 13.9584 24.375H15.6251C15.1651 24.375 14.7917 24.0075 14.7917 23.2967Z" fill="#1975A8"/>
<path d="M16.175 24.375H13.825C13.4383 24.375 13.125 24.0617 13.125 23.675V21.875H16.875V23.675C16.875 24.0617 16.5617 24.375 16.175 24.375Z" fill="#F0EDED"/>
<path d="M14.7917 23.675V21.875H13.125V23.675C13.125 24.0617 13.4383 24.375 13.825 24.375H15.4917C15.105 24.375 14.7917 24.0617 14.7917 23.675Z" fill="#A4AFC1"/>
<path d="M13.125 21.25H16.875V22.5H13.125V21.25Z" fill="#333333"/>
<path d="M14.3751 5H15.6251V7.88083H14.3751V5Z" fill="#333333"/>
<path d="M19.5892 9.52545L21.6263 7.48839L22.5102 8.37228L20.4731 10.4093L19.5892 9.52545Z" fill="#333333"/>
<path d="M22.1191 14.375H24.9999V15.625H22.1191V14.375Z" fill="#333333"/>
<path d="M19.5883 20.4763L20.4721 19.5924L22.5092 21.6294L21.6253 22.5133L19.5883 20.4763Z" fill="#333333"/>
<path d="M7.48364 21.6284L9.5207 19.5913L10.4046 20.4752L8.36753 22.5122L7.48364 21.6284Z" fill="#333333"/>
<path d="M5.00006 14.375H7.8809V15.625H5.00006V14.375Z" fill="#333333"/>
<path d="M7.48529 8.37073L8.36917 7.48684L10.4062 9.5239L9.52235 10.4078L7.48529 8.37073Z" fill="#333333"/>
<path d="M18.75 14.7917H17.5C17.5 13.5275 16.4725 12.5 15.2083 12.5V11.25C17.1608 11.25 18.75 12.8392 18.75 14.7917Z" fill="#333333"/>
<path d="M16.0418 25H13.9584C13.2559 25 12.5001 24.4667 12.5001 23.2967V21.8267C12.5001 20.9425 12.1234 20.1308 11.4926 19.6558C9.67175 18.285 8.82925 16.03 9.29342 13.7708C9.74758 11.5575 11.5384 9.75999 13.7493 9.29749C15.7159 8.88666 17.7284 9.47666 19.1276 10.8767L18.2426 11.7608C17.1268 10.6433 15.5826 10.1908 14.0043 10.5217C12.2743 10.8833 10.8734 12.29 10.5176 14.0225C10.1517 15.8033 10.8134 17.58 12.2443 18.6575C13.1868 19.3675 13.7501 20.5525 13.7501 21.8275V23.2975C13.7501 23.3733 13.7601 23.7508 13.9584 23.7508H16.0418C16.1568 23.7508 16.2501 23.6575 16.2501 23.5425V21.69C16.2501 20.5158 16.8268 19.39 17.8318 18.5992C18.9451 17.7233 19.5834 16.4117 19.5834 15C19.5834 14.3933 19.4668 13.8042 19.2376 13.2492L20.3926 12.7717C20.6851 13.4792 20.8334 14.2292 20.8334 15C20.8334 16.7983 20.0209 18.4675 18.6043 19.5817C17.9026 20.1333 17.5001 20.9017 17.5001 21.6892V23.5417C17.5001 24.3458 16.8459 25 16.0418 25Z" fill="#333333"/>
</svg>
