<svg width="30" height="30" viewBox="0 0 30 30" fill="none" xmlns="http://www.w3.org/2000/svg">
<g clip-path="url(#clip0_237_3654)">
<path d="M5.81001 3.086C12.41 3.086 16.95 0 20.132 0C23.314 0 30 1.65 30 14.856C30 28.062 21.01 30 17.51 30C1.11701 30.001 -5.88399 3.086 5.81001 3.086Z" fill="#F0EDED"/>
<path d="M27.79 5.41602C27.4934 5.41602 27.2034 5.32804 26.9567 5.16322C26.71 4.9984 26.5178 4.76413 26.4042 4.49004C26.2907 4.21595 26.261 3.91435 26.3189 3.62338C26.3767 3.33241 26.5196 3.06513 26.7294 2.85536C26.9392 2.64558 27.2064 2.50272 27.4974 2.44484C27.7884 2.38696 28.09 2.41667 28.3641 2.5302C28.6382 2.64373 28.8724 2.83599 29.0372 3.08266C29.2021 3.32933 29.29 3.61934 29.29 3.91602C29.29 4.31384 29.132 4.69537 28.8507 4.97668C28.5694 5.25798 28.1879 5.41602 27.79 5.41602ZM27.79 3.41602C27.6911 3.41602 27.5945 3.44534 27.5123 3.50028C27.43 3.55522 27.3659 3.63331 27.3281 3.72467C27.2903 3.81604 27.2804 3.91657 27.2996 4.01356C27.3189 4.11055 27.3666 4.19964 27.4365 4.26957C27.5064 4.3395 27.5955 4.38712 27.6925 4.40641C27.7895 4.4257 27.89 4.4158 27.9814 4.37796C28.0727 4.34011 28.1508 4.27603 28.2058 4.1938C28.2607 4.11158 28.29 4.01491 28.29 3.91602C28.29 3.78341 28.2374 3.65623 28.1436 3.56246C28.0498 3.46869 27.9226 3.41602 27.79 3.41602Z" fill="#A4AFC1"/>
<path d="M19.54 6.30699C19.783 6.26114 20.0334 6.27446 20.2701 6.34582C20.5069 6.41718 20.7229 6.54449 20.9 6.71699L25.08 10.967C25.2235 11.1041 25.3381 11.2685 25.4171 11.4505C25.4961 11.6326 25.5379 11.8286 25.54 12.027V24.277C25.5379 24.4754 25.4961 24.6714 25.4171 24.8535C25.3381 25.0355 25.2235 25.1999 25.08 25.337C24.7802 25.6207 24.3828 25.7782 23.97 25.777H15.61C15.1973 25.7782 14.7999 25.6207 14.5 25.337C14.3566 25.1999 14.2419 25.0355 14.1629 24.8535C14.0839 24.6714 14.0422 24.4754 14.04 24.277V21.147L19.54 6.30699Z" fill="#39A2DD"/>
<path d="M21.96 8.11098V14.111C21.9591 14.5086 21.8009 14.8896 21.52 15.171L13.02 23.671C12.7387 23.9519 12.3575 24.1097 11.96 24.1097C11.5625 24.1097 11.1812 23.9519 10.9 23.671L4.89998 17.671C4.61908 17.3897 4.4613 17.0085 4.4613 16.611C4.4613 16.2135 4.61908 15.8322 4.89998 15.551L13.4 7.05098C13.6813 6.77006 14.0624 6.61188 14.46 6.61098H20.46C20.5442 6.61048 20.6282 6.62056 20.71 6.64098C21.0592 6.69715 21.3769 6.87604 21.606 7.14549C21.8352 7.41494 21.9607 7.75728 21.96 8.11098Z" fill="#F0EDED"/>
<path d="M7.14998 17.671C6.86908 17.3898 6.7113 17.0085 6.7113 16.611C6.7113 16.2135 6.86908 15.8323 7.14998 15.551L15.65 7.05102C15.9313 6.7701 16.3124 6.61192 16.71 6.61102H14.46C14.0624 6.61192 13.6813 6.7701 13.4 7.05102L4.89998 15.551C4.61908 15.8323 4.4613 16.2135 4.4613 16.611C4.4613 17.0085 4.61908 17.3898 4.89998 17.671L10.9 23.671C11.1812 23.9519 11.5625 24.1097 11.96 24.1097C12.3575 24.1097 12.7387 23.9519 13.02 23.671L13.085 23.606L7.14998 17.671Z" fill="#A4AFC1"/>
<path d="M16.915 23.47V20.34L18.387 16.368L14.815 19.943L14.668 20.343V23.473C14.6701 23.6714 14.7119 23.8674 14.7909 24.0495C14.8699 24.2315 14.9845 24.3959 15.128 24.533C15.4278 24.8167 15.8253 24.9742 16.238 24.973H18.488C18.0753 24.9742 17.6778 24.8167 17.378 24.533C17.2336 24.3958 17.1183 24.231 17.0387 24.0484C16.9592 23.8658 16.9171 23.6691 16.915 23.47Z" fill="#1975A8"/>
<path d="M11.96 22.584C11.3914 22.5915 10.835 22.4193 10.37 22.092L4.37 17.618C4.16824 17.4929 4.00176 17.3183 3.88631 17.1108C3.77086 16.9034 3.71027 16.6699 3.71027 16.4325C3.71027 16.1951 3.77086 15.9616 3.88631 15.7541C4.00176 15.5467 4.16824 15.3721 4.37 15.247L12.87 8.90899C13.3348 8.5813 13.8913 8.40876 14.46 8.41599H20.46C20.6049 8.41557 20.7495 8.42863 20.892 8.45499C21.3405 8.46712 21.77 8.63884 22.1032 8.93926C22.4365 9.23969 22.6516 9.64913 22.71 10.094V14.568C22.7004 14.8035 22.6357 15.0335 22.5211 15.2395C22.4065 15.4455 22.2451 15.6217 22.05 15.754L13.55 22.092C13.085 22.4193 12.5286 22.5915 11.96 22.584ZM14.46 9.53499C14.2705 9.53248 14.085 9.58988 13.93 9.69899L5.43 16.037C5.36282 16.0787 5.30739 16.1369 5.26896 16.206C5.23053 16.2751 5.21036 16.3529 5.21036 16.432C5.21036 16.5111 5.23053 16.5889 5.26896 16.658C5.30739 16.7271 5.36282 16.7853 5.43 16.827L11.43 21.301C11.5879 21.4032 11.7719 21.4576 11.96 21.4576C12.1481 21.4576 12.3321 21.4032 12.49 21.301L20.99 14.963C21.0558 14.9186 21.1101 14.8591 21.1483 14.7896C21.1866 14.72 21.2077 14.6423 21.21 14.563V10.094C21.1898 9.9446 21.1166 9.80744 21.0037 9.70756C20.8908 9.60769 20.7457 9.55176 20.595 9.54999L20.46 9.53399L14.46 9.53499Z" fill="#333333"/>
<path d="M23.97 26.476H15.61C15.0029 26.477 14.4187 26.2438 13.979 25.825C13.7633 25.618 13.5912 25.3698 13.4728 25.0952C13.3545 24.8206 13.2923 24.525 13.29 24.226V21.096H14.79V24.226C14.7924 24.3238 14.814 24.4201 14.8537 24.5095C14.8933 24.5989 14.9502 24.6796 15.021 24.747C15.1813 24.8952 15.3918 24.977 15.61 24.976H23.97C24.188 24.9771 24.3982 24.8953 24.558 24.747C24.6289 24.6796 24.6858 24.5989 24.7254 24.5095C24.765 24.4201 24.7867 24.3238 24.789 24.226V11.976C24.7867 11.8782 24.765 11.7819 24.7254 11.6925C24.6858 11.6031 24.6289 11.5224 24.558 11.455L20.365 7.19201C20.2745 7.10676 20.165 7.04419 20.0456 7.00942C19.9262 6.97466 19.8002 6.96869 19.678 6.99201L19.402 5.51701C19.7631 5.44994 20.135 5.47032 20.4867 5.57644C20.8383 5.68257 21.1593 5.87136 21.423 6.12701L25.615 10.389C25.8272 10.5955 25.9962 10.8422 26.1121 11.1146C26.228 11.3871 26.2885 11.6799 26.29 11.976V24.226C26.2878 24.5251 26.2258 24.8207 26.1077 25.0955C25.9895 25.3703 25.8176 25.6187 25.602 25.826C25.1618 26.2444 24.5774 26.4772 23.97 26.476Z" fill="#333333"/>
<path d="M18.325 11.835C19.1534 11.835 19.825 11.1634 19.825 10.335C19.825 9.50659 19.1534 8.83502 18.325 8.83502C17.4966 8.83502 16.825 9.50659 16.825 10.335C16.825 11.1634 17.4966 11.835 18.325 11.835Z" fill="#333333"/>
<path d="M24.864 11.717H23.364V8.21698C23.364 7.62024 23.127 7.04795 22.705 6.62599C22.283 6.20403 21.7108 5.96698 21.114 5.96698C20.5173 5.96698 19.945 6.20403 19.523 6.62599C19.1011 7.04795 18.864 7.62024 18.864 8.21698V10.717H17.364V8.21698C17.364 7.22242 17.7591 6.26859 18.4624 5.56533C19.1656 4.86207 20.1195 4.46698 21.114 4.46698C22.1086 4.46698 23.0624 4.86207 23.7657 5.56533C24.4689 6.26859 24.864 7.22242 24.864 8.21698V11.717Z" fill="#333333"/>
</g>
<defs>
<clipPath id="clip0_237_3654">
<rect width="30" height="30" fill="white"/>
</clipPath>
</defs>
</svg>
