<svg xmlns="http://www.w3.org/2000/svg" xmlns:xlink="http://www.w3.org/1999/xlink" width="40" height="40" viewBox="0 0 40 40">
  <defs>
    <clipPath id="clip-path">
      <rect id="Прямоугольник_14" data-name="Прямоугольник 14" width="40" height="40" transform="translate(682 253)" fill="#fff" stroke="#707070" stroke-width="1"/>
    </clipPath>
  </defs>
  <g id="Группа_масок_4" data-name="Группа масок 4" transform="translate(-682 -253)" clip-path="url(#clip-path)">
    <g id="download-circular-button" transform="translate(682 253)">
      <g id="_x37__43_">
        <g id="Сгруппировать_27" data-name="Сгруппировать 27">
          <path id="Контур_7" data-name="Контур 7" d="M26.4,19.33,21.25,24.482V11.25a1.25,1.25,0,0,0-2.5,0V24.482L13.6,19.331A1.25,1.25,0,1,0,11.831,21.1L18.9,28.17a1.225,1.225,0,0,0,1.1.324,1.23,1.23,0,0,0,1.1-.324L28.171,21.1A1.251,1.251,0,0,0,26.4,19.33ZM20,0A20,20,0,1,0,40,20,20,20,0,0,0,20,0Zm0,37.5A17.5,17.5,0,1,1,37.5,20,17.5,17.5,0,0,1,20,37.5Z" fill="#fff"/>
        </g>
      </g>
    </g>
  </g>
</svg>
